<?xml version="1.0" encoding="UTF-8"?><svg id="Capa_1" xmlns="http://www.w3.org/2000/svg" viewBox="0 0 600 600"><defs><style>.cls-1{fill:#7c7c7c;}.cls-2{fill:#ffb680;}.cls-3{fill:#ed8a40;}.cls-4{fill:#fff;}.cls-5{fill:#142535;}.cls-6{fill:#7b549e;}.cls-7{fill:#081019;}.cls-8{fill:#5be88d;}.cls-9{fill:#4f4898;}.cls-10{fill:#27c45b;}</style></defs><path class="cls-7" d="M321.47,198.45h112.54c13.22,0,23.94,10.73,23.94,23.94v229.87c0,13.22-10.73,23.94-23.94,23.94h-112.54c-13.22,0-23.94-10.73-23.94-23.94v-229.87c0-13.22,10.73-23.95,23.95-23.95Z"/><path class="cls-5" d="M335.33,198.45h112.54c13.22,0,23.94,10.73,23.94,23.94v229.87c0,13.22-10.73,23.94-23.94,23.94h-112.54c-13.22,0-23.94-10.73-23.94-23.94v-229.87c0-13.22,10.73-23.95,23.95-23.95Z"/><path class="cls-1" d="M415.96,453.6c0,3.51-2.84,6.35-6.35,6.35h-30.47c-3.51,0-6.35-2.84-6.35-6.35h0c0-3.51,2.84-6.35,6.35-6.35h30.47c3.51,0,6.35,2.84,6.35,6.35h0Z"/><path class="cls-4" d="M401.52,214.95c0,3.24-2.63,5.87-5.87,5.87s-5.87-2.63-5.87-5.87,2.63-5.87,5.87-5.87,5.87,2.63,5.87,5.87Z"/><polygon class="cls-4" points="324.56 231.45 324.56 312.34 324.56 335.61 324.56 346.44 324.56 435.4 413.83 435.4 422.03 435.4 447.19 435.4 459.12 435.4 459.12 415.64 459.12 409.12 459.12 385.59 459.12 379.07 459.12 350.71 459.12 347.1 459.12 231.45 324.56 231.45"/><rect class="cls-6" x="335.07" y="265.12" width="115.66" height="121.05"/><rect class="cls-8" x="335.07" y="240.91" width="115.66" height="12.22"/><path class="cls-8" d="M410.5,421.81h-30.04c-6.02,0-10.95-4.93-10.95-10.95h0c0-6.02,4.93-10.95,10.95-10.95h30.04c6.02,0,10.95,4.93,10.95,10.95h0c0,6.02-4.93,10.95-10.95,10.95Z"/><rect class="cls-4" x="377.86" y="347.67" width="30.52" height="21.53"/><path class="cls-4" d="M360.87,319.29c0,17.73,14.51,32.24,32.24,32.24s32.24-14.51,32.24-32.24v-6.03h-64.49v6.03Z"/><path class="cls-5" d="M393.11,280.39c-17.73,0-32.24,14.51-32.24,32.24v.63h64.49v-.63c0-17.73-14.51-32.24-32.24-32.24Z"/><path class="cls-5" d="M436.1,386.17c-.37-13.13-11.19-23.76-24.4-23.76h-38.01c-13.21,0-24.03,10.63-24.4,23.76h86.81Z"/><path class="cls-3" d="M518.61,466.4h-63.11v-57.04c0-2.5-.85-4.8-2.24-6.68h.5v-4.65h-10.04v.04c-6.03.24-10.89,5.21-10.89,11.29v108.37c-6.13-7.25-14.04-15.73-21.4-20.98-1.86-1.33-3.7-2.4-5.48-3.23v-2.41h-9.64s-.06,0-.09,0h-.9v.05c-6.41.35-9.82,4.57-6.58,9.69,5.44,8.59,34.55,46.32,45.8,60.83.07.02.13.03.2.05,1.59,2,4.02,3.32,6.77,3.32h77.1c4.78,0,8.68-3.91,8.68-8.68v-81.27c0-4.78-3.91-8.68-8.68-8.68Z"/><path class="cls-2" d="M528.2,466.4h-63.11v-57.04c0-6.23-5.1-11.33-11.33-11.33h0c-6.23,0-11.33,5.1-11.33,11.33v108.37c-6.13-7.25-14.04-15.73-21.4-20.98-14.9-10.64-28.12-4.49-22.68,4.1,5.44,8.59,34.55,46.32,45.8,60.83.07.02.13.03.2.05,1.59,2,4.02,3.32,6.77,3.32h77.09c4.78,0,8.68-3.91,8.68-8.68v-81.27c0-4.78-3.91-8.68-8.68-8.68Z"/><path class="cls-4" d="M461.55,419.26v-8.64c0-3.99-3.26-7.25-7.25-7.25s-7.25,3.26-7.25,7.25v8.64h14.5Z"/><rect class="cls-7" x="63.12" y="34.96" width="160.43" height="277.76" rx="23.95" ry="23.95"/><path class="cls-5" d="M100.93,34.96h112.54c13.22,0,23.95,10.73,23.95,23.95v229.87c0,13.22-10.73,23.94-23.94,23.94h-112.54c-13.22,0-23.94-10.73-23.94-23.94V58.9c0-13.22,10.73-23.95,23.95-23.95Z"/><path class="cls-4" d="M181.55,290.11c0,3.51-2.84,6.35-6.35,6.35h-30.47c-3.51,0-6.35-2.84-6.35-6.35h0c0-3.51,2.84-6.35,6.35-6.35h30.47c3.51,0,6.35,2.84,6.35,6.35h0Z"/><path class="cls-4" d="M167.11,51.46c0,3.24-2.63,5.87-5.87,5.87s-5.87-2.63-5.87-5.87,2.63-5.87,5.87-5.87,5.87,2.63,5.87,5.87Z"/><polygon class="cls-4" points="90.16 67.96 90.16 148.85 90.16 172.13 90.16 182.96 90.16 271.92 179.42 271.92 187.62 271.92 212.78 271.92 224.71 271.92 224.71 252.15 224.71 245.64 224.71 222.1 224.71 215.59 224.71 187.22 224.71 183.62 224.71 67.96 90.16 67.96"/><rect class="cls-9" x="100.67" y="101.63" width="115.66" height="121.05"/><rect class="cls-9" x="100.67" y="77.43" width="115.66" height="12.22"/><path class="cls-9" d="M176.1,258.32h-30.04c-6.02,0-10.94-4.93-10.94-10.95h0c0-6.02,4.93-10.95,10.94-10.95h30.04c6.02,0,10.95,4.93,10.95,10.95h0c0,6.02-4.93,10.95-10.95,10.95Z"/><rect class="cls-5" x="126.46" y="149.78" width="64.49" height="42.02"/><rect class="cls-4" x="143.45" y="184.19" width="30.52" height="21.53"/><path class="cls-4" d="M126.46,155.81c0,17.73,14.51,32.24,32.24,32.24s32.24-14.51,32.24-32.24v-6.03h-64.49v6.03Z"/><path class="cls-5" d="M158.7,116.9c-17.73,0-32.24,14.51-32.24,32.24v.63h64.49v-.63c0-17.73-14.51-32.24-32.24-32.24Z"/><path class="cls-5" d="M201.7,222.68c-.37-13.13-11.19-23.76-24.4-23.76h-38.01c-13.21,0-24.04,10.63-24.4,23.76h86.81Z"/><path class="cls-10" d="M374.23,88.23h-131.68c-6.72,0-12.22,5.5-12.22,12.22v32.09l-21.73,31.88h10.52l6.04-7.68,17.4-8.07h131.66c6.72,0,12.22-5.5,12.22-12.22v-36c0-6.72-5.5-12.22-12.22-12.22Z"/><path class="cls-8" d="M384.76,88.23h-131.68c-6.72,0-12.22,5.5-12.22,12.22v32.07l-21.74,31.9,33.96-15.75h131.68c6.72,0,12.22-5.5,12.22-12.22v-36c0-6.72-5.5-12.22-12.22-12.22Z"/><rect class="cls-4" x="256.11" y="99.33" width="127.27" height="6.57"/><rect class="cls-4" x="256.11" y="114.54" width="127.27" height="6.57"/><rect class="cls-4" x="256.11" y="129.75" width="127.27" height="6.57"/></svg>