<?xml version="1.0" encoding="UTF-8"?><svg id="Capa_1" xmlns="http://www.w3.org/2000/svg" viewBox="0 0 600 600"><defs><style>.cls-1{fill:#7b549e;}.cls-2{fill:#dbdbdb;}.cls-3{fill:#5be88d;}.cls-4{fill:#4f4898;}</style></defs><path class="cls-4" d="M287.4,449.03c-2.71-.77-5.47-1.38-8.11-2.33-8.21-2.97-14.54-8.28-19.17-15.69-.54-.86-1.58-1.86-2.47-1.96-13-1.43-18.61-10.29-13.94-22.45-6.7-5.3-8.65-11.93-4.96-20.09-4.44-3.4-7.09-7.74-6.76-13.53.29-5.18,2.58-9.37,7.08-11.78,2.49-1.33,2.66-2.9,2.4-5.15-2.13-18.68-8.91-35.42-21.06-49.81-11.15-13.22-18.61-28.12-21.95-45.14-9.78-49.92,22.77-99.69,72.44-110.66,12.08-2.67,24.27-2.91,36.52-1.74,4.95.47,8.89,4.12,9.92,9.08.64,3.06.97,6.19,1.69,9.24.21.88,1.11,1.93,1.96,2.29,7.34,3.17,14.72,6.25,22.14,9.23.87.35,2.27.27,3.06-.21,2.58-1.59,4.94-3.53,7.47-5.2,4.71-3.12,9.91-3.05,14.09.73,4.85,4.39,9.52,9.03,13.9,13.9,3.83,4.25,3.85,9.58.63,14.37-1.58,2.36-3.24,4.67-4.98,6.91-.95,1.23-.98,2.13-.31,3.64,3.16,7.13,6.03,14.39,9.13,21.55.41.95,1.45,2.03,2.4,2.27,2.84.72,5.78,1.01,8.66,1.55,5.45,1.02,9.31,4.84,9.59,10.36.33,6.73.33,13.49,0,20.22-.25,5.2-3.76,8.86-8.85,10.02-2.95.68-5.95,1.2-8.96,1.57-1.69.21-2.35.87-2.99,2.51-2.83,7.27-5.88,14.45-9.02,21.6-.59,1.35-.67,2.2.24,3.38,1.8,2.31,3.5,4.72,5.13,7.16,3.26,4.9,3.09,10.22-.92,14.58-4.3,4.68-8.81,9.18-13.49,13.47-4.15,3.81-9.61,3.97-14.36.81-3.01-2-5.9-4.17-8.01-5.66-8.75,3.34-16.86,6.41-24.94,9.58-.65.25-1.36,1.08-1.5,1.75-.62,2.95-1.04,5.94-1.61,9.34,4.43,0,8.61-.02,12.79,0,2.84.01,5.7-.15,8.51.17,6.33.72,10.73,4.21,12.66,10.28,1.91,6.04.4,11.39-4.26,15.78-.56.53-1.14,1.04-1.67,1.52,3.05,9.33,1.8,14.29-4.9,19.91.51,2.28,1.32,4.52,1.45,6.79.48,8.6-5.86,15.29-14.63,15.85-1.06.07-2.53.64-3.04,1.47-6.26,10.08-15.12,16.19-26.85,18.11-.26.04-.5.28-.74.43h-9.4ZM286.79,358.55v-200.44c-4.02.59-7.8,1.01-11.53,1.7-45.23,8.34-76.25,54.71-66.92,99.75,3.2,15.42,10.12,28.82,20.22,40.83,10.98,13.05,18.02,28.11,21.29,44.87.86,4.38,1.41,8.83,2.11,13.29h34.84ZM297.22,358.4c2.76,0,5.19-.03,7.63,0,1.93.03,2.78-.95,3.04-2.8.55-3.87,1.31-7.72,1.81-11.6.4-3.04,2-4.76,4.95-5.38,9.58-2.02,18.48-5.74,26.69-11.05,2.58-1.67,4.87-1.58,7.29.23,3.22,2.4,6.55,4.64,9.76,7.05,1.45,1.08,2.58,1.04,3.84-.24,3.7-3.77,7.44-7.5,11.19-11.21,1.21-1.2,1.17-2.27.19-3.6-2.39-3.22-4.6-6.58-7.05-9.76-1.95-2.54-1.96-4.89-.24-7.54,5.29-8.11,8.91-16.95,10.94-26.41.68-3.16,2.49-4.68,5.56-5.12,3.87-.55,7.72-1.27,11.6-1.82,1.61-.23,2.52-.89,2.52-2.6,0-5.38,0-10.75.04-16.13.01-1.85-.97-2.53-2.66-2.79-3.97-.59-7.91-1.36-11.88-1.92-2.78-.39-4.47-1.84-5.05-4.55-2.09-9.77-5.85-18.85-11.28-27.22-1.6-2.47-1.42-4.72.3-7.04,2.39-3.22,4.63-6.56,7.05-9.76,1.08-1.42,1.18-2.55-.13-3.84-3.76-3.71-7.5-7.44-11.21-11.2-1.28-1.3-2.39-1.23-3.82-.14-3.11,2.37-6.4,4.51-9.51,6.89-2.51,1.92-4.88,2.08-7.54.34-8.2-5.36-17.15-8.96-26.69-11.06-3.03-.67-4.48-2.42-4.88-5.4-.51-3.78-1.07-7.56-1.89-11.28-.23-1.07-1.3-2.56-2.22-2.75-2.65-.53-5.41-.5-8.34-.71v29.85c41.78-.21,70.29,36.23,70.06,70-.11,16.31-4.87,31.07-15.04,43.85-14,17.61-32.57,26.29-55.06,27.03v29.66ZM297.27,198.15v15c.87.07,1.63.13,2.39.2,18.49,1.72,32.04,10.83,39.06,28.03,6.96,17.06,4,33.12-8.08,47.09-7.97,9.21-18.36,14.06-30.56,14.96-1.19.09-3-.57-3,1.73,0,4.39,0,8.77,0,13.54,21.65-.89,38.87-9.53,50.34-27.58,13.37-21.06,13.6-43.02.66-64.34-11.36-18.71-28.81-27.67-50.81-28.62ZM297.26,223.23v70.24c12.42-.39,22.21-5.4,28.89-15.55,7.84-11.9,8.3-24.52,1.28-36.94-6.48-11.48-16.81-17-30.18-17.74ZM292.17,368.76c-14.3,0-28.59,0-42.89,0-1.17,0-2.37-.02-3.5.24-2.38.54-3.69,2.15-3.76,4.6-.07,2.58,1.2,4.31,3.71,4.93,1.12.28,2.33.28,3.5.28,28.59.01,57.18.01,85.78,0,1.07,0,2.17-.02,3.21-.23,2.63-.54,4.16-2.71,3.9-5.37-.29-2.89-2.36-4.44-6.18-4.44-14.59-.02-29.18,0-43.77-.01ZM292.17,388.88c-13.22,0-26.43-.02-39.65.02-3.34.01-5.48,1.93-5.59,4.76-.11,2.91,2.12,5.02,5.53,5.2.59.03,1.17.01,1.76.01,25.26,0,50.52,0,75.78-.01,1.26,0,2.58-.02,3.77-.37,2.36-.69,3.53-2.55,3.38-4.9-.16-2.47-1.55-4.21-4.16-4.59-.96-.14-1.95-.11-2.93-.11-12.63,0-25.26,0-37.89,0ZM292.17,408.91c-2.54,0-5.09,0-7.63,0-9,0-18-.04-27,.03-4.03.03-6.49,3.1-5.29,6.52.94,2.69,3.13,3.5,5.82,3.49,22.7-.02,45.4,0,68.1-.03.96,0,1.99-.11,2.86-.47,2.25-.91,3.32-2.69,3.05-5.12-.27-2.42-1.7-3.91-4.11-4.3-1.05-.17-2.15-.12-3.22-.12-10.86,0-21.72,0-32.58,0ZM271.67,429.15c10.41,13.62,32.03,12.26,40.7,0h-40.7Z"/><path class="cls-4" d="M213.67,236.19c2.29-6,4.12-12.23,6.96-17.96,8.18-16.49,20.96-28.33,37.83-35.71,3.68-1.61,6.42-.84,7.74,2.1,1.29,2.89-.01,5.44-3.69,7.09-19.95,8.95-32.68,23.99-38.12,45.18-.9,3.52-3.09,5.26-5.94,4.8-2.53-.41-4.21-2.54-4.78-5.5Z"/><polygon class="cls-1" points="400.72 125.55 501.44 300 478.5 339.73 543.69 354.24 575 300 437.5 61.84 435.29 61.84 400.72 125.55 400.72 125.55"/><polygon class="cls-4" points="199.28 125.55 377.62 125.55 410.12 61.84 162.5 61.84 130.31 117.59 178.88 160.88 199.28 125.55"/><polygon class="cls-4" points="400.72 474.45 318.31 474.45 326.6 538.16 437.5 538.16 533.27 372.28 470.87 352.94 400.72 474.45"/><polygon class="cls-2" points="272.9 474.45 267.16 538.16 283.45 538.16 286.71 474.45 272.9 474.45"/><polygon class="cls-3" points="98.56 300 152.15 207.17 95.89 177.22 25 300 25 300 98.56 300 98.56 300"/><polygon class="cls-3" points="295.62 474.45 295.62 538.16 315.11 538.16 309.9 474.45 295.62 474.45"/><polygon class="cls-1" points="199.28 474.45 107.43 315.37 37.11 320.98 162.5 538.16 256.44 538.16 265.05 474.45 199.28 474.45"/><polygon class="cls-2" points="172.14 172.55 121.19 133.39 102.57 165.65 157.05 198.69 172.14 172.55"/></svg>