<?xml version="1.0" encoding="UTF-8"?><svg xmlns="http://www.w3.org/2000/svg" viewBox="0 0 600 600"><defs><style>.cls-1{fill:#1d2b67;}.cls-2{fill:#cd337b;}.cls-3{isolation:isolate;}.cls-4{fill:#7b549e;}.cls-5{fill:#eebd2c;}.cls-6{fill:#474849;}.cls-7{fill:#4f4898;}.cls-8{mix-blend-mode:multiply;opacity:.5;}</style></defs><g class="cls-3"><g id="Capa_1"><rect class="cls-6" x="193.55" y="405.45" width="100.7" height="6.8" transform="translate(-232.04 397.53) rotate(-57.82)"/><rect class="cls-6" x="348.41" y="212.96" width="45.61" height="6.8" transform="translate(-46.5 317) rotate(-43.78)"/><path class="cls-6" d="M293.36,209.55l-6.12-2.97,1.63-3.37,6.12,2.97-1.64,3.37ZM297.97,200.06l-6.12-2.97,5.94-12.24,6.12,2.97-5.94,12.24ZM306.88,181.71l-6.12-2.97,5.94-12.24,6.12,2.97-5.94,12.24ZM315.79,163.35l-6.12-2.97,5.94-12.24,6.12,2.97-5.94,12.24ZM324.7,145l-6.12-2.97,5.94-12.24,6.12,2.97-5.94,12.24Z"/><rect class="cls-6" x="177.7" y="128.79" width="6.8" height="104.27" transform="translate(-74.88 179.08) rotate(-44.56)"/><rect class="cls-6" x="68.98" y="311.67" width="135.09" height="6.8" transform="translate(-1.03 .45) rotate(-.19)"/><rect class="cls-6" x="440.61" y="233.51" width="6.8" height="137.66" transform="translate(107.27 720.87) rotate(-85.43)"/><path class="cls-1" d="M182.75,292.4c0,53.33,43.23,96.56,96.56,96.56s96.56-43.23,96.56-96.56-43.23-96.56-96.56-96.56-96.56,43.23-96.56,96.56ZM214.7,292.4c0-35.68,28.93-64.61,64.61-64.61s64.61,28.93,64.61,64.61-28.93,64.61-64.61,64.61-64.61-28.93-64.61-64.61Z"/><g class="cls-8"><path class="cls-1" d="M279.31,357.01c35.68,0,64.61-28.93,64.61-64.61s-28.93-64.61-64.61-64.61v-31.95c53.33,0,96.56,43.23,96.56,96.56s-43.23,96.56-96.56,96.56v-31.95Z"/></g><path class="cls-5" d="M494.87,307.83c0,21.74,17.62,39.36,39.36,39.36s39.36-17.62,39.36-39.36-17.62-39.36-39.36-39.36-39.36,17.62-39.36,39.36ZM514.28,307.83c0-11.02,8.93-19.95,19.95-19.95s19.95,8.93,19.95,19.95-8.93,19.95-19.95,19.95-19.95-8.93-19.95-19.95Z"/><g class="cls-8"><path class="cls-5" d="M534.23,334.16c14.54,0,26.34-11.79,26.34-26.34s-11.79-26.34-26.34-26.34v-13.02c21.74,0,39.36,17.62,39.36,39.36s-17.62,39.36-39.36,39.36v-13.02Z"/></g><circle class="cls-2" cx="341.08" cy="107.43" r="33.24" transform="translate(-15.56 81.24) rotate(-13.28)"/><circle class="cls-7" cx="204.07" cy="482.65" r="43.17"/><path class="cls-4" d="M133.12,150.29c0,9.89,8.02,17.91,17.91,17.91s17.91-8.02,17.91-17.91-8.02-17.91-17.91-17.91-17.91,8.02-17.91,17.91Z"/><circle class="cls-4" cx="390.4" cy="194.7" r="17.91" transform="translate(-26.15 65.05) rotate(-9.22)"/><circle class="cls-5" cx="50.84" cy="311.96" r="24.43" transform="translate(-70.31 20.03) rotate(-13.28)"/></g></g></svg>