<?xml version="1.0" encoding="UTF-8"?><svg id="Capa_1" xmlns="http://www.w3.org/2000/svg" viewBox="0 0 600 600"><defs><style>.cls-1{fill:#777;}.cls-2{fill:#fff;}.cls-3{fill:#142535;}.cls-4{fill:#1f4660;}.cls-5{fill:#7b549e;}.cls-6{fill:#666;}.cls-7{fill:#081019;}.cls-8{fill:#5be88d;}.cls-9{fill:#4f4898;}.cls-10{fill:#27c45b;}</style></defs><path class="cls-7" d="M477.76,334.19V124.2c0-8.23-6.74-14.97-14.97-14.97H185.41c-8.23,0-14.97,6.74-14.97,14.97v209.99h307.33Z"/><path class="cls-3" d="M497.47,334.19V124.2c0-8.23-6.74-14.97-14.97-14.97H205.12c-8.23,0-14.97,6.74-14.97,14.97v209.99h307.33Z"/><rect class="cls-6" x="170.44" y="334.19" width="292.07" height="23.14"/><rect class="cls-4" x="271.4" y="334.19" width="292.07" height="23.14"/><rect class="cls-1" x="226.68" y="317.86" width="29.34" height="16.34"/><rect class="cls-4" x="439.75" y="317.86" width="29.34" height="16.34"/><rect class="cls-2" x="210.62" y="131.25" width="267.15" height="168.19"/><path class="cls-10" d="M321.89,172.57h-34.4c-4.42,0-8.03,3.61-8.03,8.03v82.22c0,4.42,3.61,8.03,8.03,8.03h34.4v-98.28Z"/><path class="cls-8" d="M408.4,189.52h-53.35v-8.92c0-4.42-3.61-8.03-8.03-8.03h-46.32c-4.42,0-8.03,3.61-8.03,8.03v82.22c0,4.42,3.61,8.03,8.03,8.03h107.7c4.97,0,9.04-4.07,9.04-9.04v-63.25c0-4.97-4.07-9.04-9.04-9.04Z"/><rect class="cls-8" x="226.68" y="143.21" width="242.4" height="11.98"/><path class="cls-7" d="M370.15,467.63v-209.99c0-8.23-6.74-14.97-14.97-14.97H77.79c-8.24,0-14.97,6.74-14.97,14.97v209.99h307.33Z"/><path class="cls-3" d="M389.85,467.63v-209.99c0-8.23-6.74-14.97-14.97-14.97H97.5c-8.24,0-14.97,6.74-14.97,14.97v209.99h307.33Z"/><rect class="cls-3" x="62.82" y="467.63" width="292.07" height="23.14"/><rect class="cls-4" x="163.79" y="467.63" width="292.07" height="23.14"/><rect class="cls-4" x="119.07" y="451.3" width="29.34" height="16.34"/><rect class="cls-4" x="332.13" y="451.3" width="29.34" height="16.34"/><rect class="cls-2" x="103" y="264.69" width="267.15" height="168.19"/><rect class="cls-5" x="115.37" y="274.98" width="242.4" height="11.98"/><path class="cls-9" d="M214.8,312.6h-34.4c-4.42,0-8.03,3.61-8.03,8.03v82.22c0,4.42,3.61,8.03,8.03,8.03h34.4v-98.28Z"/><path class="cls-5" d="M301.31,329.56h-53.35v-8.92c0-4.42-3.61-8.03-8.03-8.03h-46.32c-4.42,0-8.03,3.61-8.03,8.03v82.22c0,4.42,3.61,8.03,8.03,8.03h107.7c4.97,0,9.04-4.07,9.04-9.04v-63.25c0-4.97-4.07-9.04-9.04-9.04Z"/><polygon class="cls-10" points="428.83 204.86 489.24 241.31 489.24 204.86 489.24 168.42 428.83 204.86"/><rect class="cls-10" x="489.24" y="168.42" width="17.36" height="72.89"/><polygon class="cls-8" points="446.19 204.86 506.6 241.31 506.6 204.86 506.6 168.42 446.19 204.86"/><rect class="cls-8" x="506.6" y="191.39" width="76.87" height="26.95"/><rect class="cls-9" x="93.4" y="328.42" width="14.58" height="72.89"/><rect class="cls-9" x="16.53" y="351.18" width="14.58" height="27.16"/><polygon class="cls-5" points="168.39 364.87 107.98 401.31 107.98 364.87 107.98 328.42 168.39 364.87"/><rect class="cls-5" x="31.11" y="351.39" width="76.87" height="26.95"/></svg>