<?xml version="1.0" encoding="UTF-8"?><svg id="Capa_1" xmlns="http://www.w3.org/2000/svg" viewBox="0 0 600 600"><defs><style>.cls-1{fill:#ffb680;}.cls-2{fill:#ed8a40;}.cls-3{fill:#fff;}.cls-4{fill:#7b549e;}.cls-5{fill:#081019;}.cls-6{fill:#ccc;}.cls-7{fill:#4f4898;}.cls-8{fill:#e6e6e6;}</style></defs><circle class="cls-8" cx="300" cy="300" r="258.06" transform="translate(-124.26 300) rotate(-45)"/><rect class="cls-6" x="177.37" y="111.66" width="150.67" height="152.09"/><rect class="cls-3" x="201.84" y="111.66" width="159.09" height="152.09"/><path class="cls-7" d="M217.55,200.5h-65.14c-8.36,0-15.21,6.84-15.21,15.21v155.68c0,8.37,6.84,15.21,15.21,15.21h65.14v-186.1Z"/><path class="cls-4" d="M381.35,232.61h-101.01v-16.9c0-8.36-6.84-15.21-15.21-15.21h-87.7c-8.37,0-15.21,6.84-15.21,15.21v155.68c0,8.37,6.84,15.21,15.21,15.21h203.92c9.41,0,17.11-7.7,17.11-17.11v-119.77c0-9.41-7.7-17.11-17.11-17.11Z"/><rect class="cls-5" x="217.11" y="129.21" width="131.81" height="11.73"/><path class="cls-2" d="M413.6,366.42h-79.56v-71.91c0-3.16-1.07-6.05-2.82-8.42h.63v-5.86h-12.66v.06c-7.6.3-13.73,6.56-13.73,14.23v136.61c-7.73-9.13-17.7-19.83-26.98-26.45-2.35-1.68-4.66-3.02-6.9-4.07v-3.04h-12.16s-.08,0-.11,0h-1.13v.07c-8.08.45-12.38,5.76-8.29,12.22,6.86,10.83,43.56,58.39,57.73,76.68.09.03.16.03.25.06,2.01,2.53,5.07,4.19,8.53,4.19h97.19c6.02,0,10.95-4.93,10.95-10.95v-102.46c0-6.02-4.93-10.95-10.95-10.95Z"/><path class="cls-1" d="M425.69,366.42h-79.56v-71.91c0-7.86-6.43-14.29-14.29-14.29h0c-7.86,0-14.29,6.43-14.29,14.29v136.61c-7.73-9.13-17.7-19.83-26.98-26.45-18.79-13.41-35.45-5.66-28.59,5.17,6.86,10.83,43.56,58.39,57.73,76.68.09.03.16.03.25.06,2.01,2.53,5.07,4.19,8.53,4.19h97.19c6.02,0,10.95-4.93,10.95-10.95v-102.46c0-6.02-4.93-10.95-10.95-10.95Z"/><path class="cls-3" d="M341.67,306.98v-10.89c0-5.03-4.11-9.14-9.14-9.14s-9.14,4.11-9.14,9.14v10.89h18.28Z"/></svg>