<?xml version="1.0" encoding="UTF-8"?><svg id="Capa_1" xmlns="http://www.w3.org/2000/svg" viewBox="0 0 600 600"><defs><style>.cls-1{fill:#fff;}.cls-2{fill:#142535;}.cls-3{fill:#4cd7f8;}.cls-4{fill:#7b549e;}.cls-5{fill:#081019;}.cls-6{fill:#ccc;}.cls-7{fill:#5be88d;}.cls-8{fill:#474849;}.cls-9{fill:#2e2d5b;}.cls-10{fill:#4f4898;}.cls-11{fill:#27c45b;}</style></defs><path class="cls-10" d="M569.35,289.7v-51.88h-29.9c-1.16-9.4-3.18-18.53-5.97-27.32l24.24-14-25.94-44.93-22.3,12.88c-6.09-7.98-12.96-15.34-20.48-21.96l12.06-20.88-44.93-25.94-11.35,19.66c-9.64-3.84-19.76-6.71-30.25-8.51v-21.73h-51.88v21.73c-10.58,1.82-20.79,4.73-30.51,8.62l-10.81-18.72-44.93,25.94,11.56,20.03c-7.7,6.81-14.71,14.38-20.91,22.61l-20.62-11.91-25.94,44.93,22.88,13.21c-2.83,9.12-4.82,18.62-5.89,28.39h-27.58v51.88h30.75c2.08,8.78,4.92,17.27,8.46,25.39l-27.58,15.92,25.94,44.93,30.21-17.44c5.64,6.01,11.76,11.56,18.31,16.6l-17.79,30.81,44.93,25.94,18.82-32.59c7.36,2.37,14.97,4.2,22.78,5.43v37.75h51.88v-38.47c7.68-1.43,15.15-3.44,22.37-5.98l18.94,32.81,44.93-25.94-18.59-32.2c6.22-5.05,12.04-10.57,17.39-16.52l31.17,18,25.94-44.93-29.48-17.02c3.23-7.88,5.82-16.09,7.71-24.58h32.36ZM505.29,256.62c0,64.45-52.24,116.69-116.69,116.69s-116.69-52.25-116.69-116.69,52.25-116.69,116.69-116.69,116.69,52.25,116.69,116.69Z"/><path class="cls-8" d="M388.6,160.24c-53.23,0-96.38,43.15-96.38,96.38s43.15,96.38,96.38,96.38,96.38-43.15,96.38-96.38-43.15-96.38-96.38-96.38ZM388.6,336.3c-44.01,0-79.68-35.67-79.68-79.68s35.67-79.68,79.68-79.68,79.68,35.67,79.68,79.68-35.67,79.68-79.68,79.68Z"/><path class="cls-9" d="M205.53,423.51c2.29-6.76,3.78-13.85,4.4-21.15l-14.59-7.07c.01-2.36-.07-4.74-.28-7.13-.06-.83-.17-1.65-.27-2.46l13.72-8.67c-1.43-7.21-3.7-14.09-6.71-20.52l-16.21,1.18c-1.59-2.81-3.35-5.5-5.27-8.06l7.54-14.35c-4.77-5.43-10.18-10.25-16.1-14.4l-13.43,9.1c-2.76-1.62-5.62-3.07-8.59-4.35l-.64-16.2c-6.75-2.29-13.84-3.78-21.14-4.41l-7.07,14.6c-2.36-.01-4.74.07-7.13.28-.84.08-1.65.18-2.47.28l-8.66-13.74c-7.21,1.44-14.1,3.71-20.53,6.72l1.17,16.21c-2.8,1.59-5.5,3.35-8.04,5.28l-14.36-7.55c-5.42,4.78-10.26,10.19-14.39,16.1l9.11,13.43c-1.63,2.76-3.1,5.62-4.37,8.58l-16.2.63c-2.29,6.76-3.78,13.84-4.4,21.15l14.59,7.07c-.02,2.37.06,4.74.27,7.13.07.83.18,1.64.28,2.47l-13.73,8.67c1.44,7.2,3.7,14.09,6.72,20.51l16.2-1.17c1.59,2.8,3.35,5.49,5.27,8.06l-7.55,14.35c4.77,5.44,10.19,10.27,16.1,14.4l13.43-9.11c2.76,1.64,5.62,3.1,8.58,4.37l.64,16.2c6.75,2.29,13.83,3.79,21.14,4.41l7.08-14.59c2.35,0,4.74-.06,7.14-.27.83-.07,1.64-.18,2.45-.29l8.67,13.75c7.22-1.44,14.09-3.71,20.53-6.72l-1.16-16.21c2.79-1.59,5.48-3.35,8.04-5.27l14.35,7.54c5.42-4.77,10.26-10.18,14.4-16.1l-9.1-13.43c1.62-2.76,3.08-5.62,4.36-8.58l16.2-.63ZM123.51,431.63c-20.42,1.79-38.42-13.33-40.2-33.74-1.77-20.42,13.34-38.42,33.75-40.19,20.42-1.79,38.43,13.33,40.2,33.73,1.77,20.43-13.34,38.43-33.75,40.2Z"/><path class="cls-5" d="M337.49,156.22h-184.13c-10.45,0-18.92,8.47-18.92,18.92v268.63c0,10.45,8.47,18.92,18.92,18.92h184.13c10.45,0,18.92-8.47,18.92-18.92V175.14c0-10.45-8.47-18.92-18.92-18.92Z"/><path class="cls-2" d="M353.93,156.22h-184.13c-10.45,0-18.92,8.47-18.92,18.92v268.63c0,10.45,8.47,18.92,18.92,18.92h184.13c10.45,0,18.92-8.47,18.92-18.92V175.14c0-10.45-8.47-18.92-18.92-18.92Z"/><path class="cls-1" d="M280.09,445.08c0,2.68-2.18,4.86-4.86,4.86h-26.73c-2.68,0-4.86-2.17-4.86-4.86h0c0-2.68,2.18-4.86,4.86-4.86h26.73c2.68,0,4.86,2.18,4.86,4.86h0Z"/><path class="cls-1" d="M266.85,167.95c0,2.75-2.23,4.98-4.98,4.98s-4.98-2.23-4.98-4.98,2.23-4.98,4.98-4.98,4.98,2.23,4.98,4.98Z"/><rect class="cls-1" x="170.16" y="179.91" width="183.42" height="249.21"/><rect class="cls-7" x="178.18" y="189.13" width="167.38" height="10.68"/><rect class="cls-10" x="187.32" y="353.98" width="15.78" height="56.95"/><rect class="cls-4" x="314.08" y="248.36" width="15.78" height="163.77"/><rect class="cls-7" x="248.99" y="232.18" width="15.78" height="178.75"/><rect class="cls-3" x="217.47" y="297.02" width="15.78" height="113.91"/><rect class="cls-3" x="279.86" y="319.45" width="15.78" height="91.48"/><rect class="cls-5" x="178.18" y="410.93" width="167.38" height="10.22"/><path class="cls-6" d="M334.74,400.17v-44.48c0-17.38,14.14-31.51,31.51-31.51s31.51,14.14,31.51,31.51v44.48h14.83v-44.48c0-25.55-20.79-46.34-46.34-46.34s-46.34,20.79-46.34,46.34v44.48h14.83Z"/><path class="cls-1" d="M342.77,400.17v-44.48c0-17.38,14.14-31.51,31.51-31.51s31.51,14.14,31.51,31.51v44.48h14.83v-44.48c0-25.55-20.79-46.34-46.34-46.34s-46.34,20.79-46.34,46.34v44.48h14.83Z"/><rect class="cls-11" x="305.25" y="399.22" width="113.33" height="115.69" rx="13.12" ry="13.12"/><rect class="cls-7" x="321.96" y="399.22" width="113.33" height="115.69" rx="13.11" ry="13.11"/><path class="cls-5" d="M388.79,458.57c0-5.62-4.55-10.17-10.17-10.17s-10.17,4.55-10.17,10.17c0,3.28,1.58,6.16,3.98,8.02l-2.32,21.22h17.02l-2.32-21.22c2.41-1.86,3.98-4.74,3.98-8.02Z"/></svg>