<?xml version="1.0" encoding="UTF-8"?><svg id="Capa_1" xmlns="http://www.w3.org/2000/svg" viewBox="0 0 600 600"><defs><style>.cls-1{fill:#fff;}.cls-2{fill:#142535;}.cls-3{fill:#7b549e;}.cls-4{fill:#999;}.cls-5{fill:#081019;}.cls-6{fill:#ccc;}.cls-7{fill:#b3b3b3;}.cls-8{fill:#5be88d;}.cls-9{fill:#4f4898;}.cls-10{fill:#27c45b;}</style></defs><path class="cls-5" d="M533.65,114.88c0-9.02-7.67-16.34-17.13-16.34H58.36c-9.46,0-17.13,7.32-17.13,16.34v285.41h492.42V114.88Z"/><path class="cls-4" d="M58.36,453.93h458.16c9.46,0,17.13-7.32,17.13-16.34v-37.3H41.24v37.3c0,9.02,7.67,16.34,17.13,16.34Z"/><rect class="cls-4" x="236.48" y="447.27" width="122.79" height="58.52"/><rect class="cls-7" x="251.16" y="447.27" width="122.79" height="58.52"/><rect class="cls-7" x="201.88" y="500.08" width="152.15" height="16.45"/><rect class="cls-6" x="251.16" y="500.08" width="152.15" height="16.45"/><path class="cls-2" d="M558.76,114.88c0-9.02-7.67-16.34-17.13-16.34H83.48c-9.46,0-17.13,7.32-17.13,16.34v285.41h492.42V114.88Z"/><path class="cls-6" d="M83.48,453.93h458.16c9.46,0,17.13-7.32,17.13-16.34v-37.3H66.35v37.3c0,9.02,7.67,16.34,17.13,16.34Z"/><polygon class="cls-1" points="85.15 117.1 85.15 145.42 85.15 148.83 85.15 376.44 539.96 376.44 539.96 148.83 539.96 145.42 539.96 117.1 85.15 117.1"/><path class="cls-1" d="M339.44,428.42c0,2.68-2.17,4.85-4.85,4.85h-26.7c-2.68,0-4.85-2.17-4.85-4.85h0c0-2.68,2.17-4.85,4.85-4.85h26.7c2.68,0,4.85,2.17,4.85,4.85h0Z"/><path class="cls-10" d="M402.77,83.47h-210.78c-11.04,0-20.07,9.03-20.07,20.07v41.87h250.93v-41.87c0-11.04-9.03-20.07-20.07-20.07Z"/><rect class="cls-9" x="171.92" y="117.1" width="250.93" height="259.34"/><path class="cls-8" d="M426.63,83.47h-210.78c-11.04,0-20.07,9.03-20.07,20.07v41.87h250.93v-41.87c0-11.04-9.03-20.07-20.07-20.07Z"/><rect class="cls-3" x="195.78" y="117.1" width="250.93" height="259.34"/><path class="cls-1" d="M385.98,98.54c0,3.53-2.86,6.38-6.38,6.38s-6.38-2.86-6.38-6.38,2.86-6.38,6.38-6.38,6.38,2.86,6.38,6.38Z"/><circle class="cls-1" cx="404.66" cy="98.54" r="6.38"/><path class="cls-1" d="M436.1,98.54c0,3.53-2.86,6.38-6.38,6.38s-6.38-2.86-6.38-6.38,2.86-6.38,6.38-6.38,6.38,2.86,6.38,6.38Z"/><rect class="cls-1" x="217.56" y="139.25" width="207.36" height="107.51"/><rect class="cls-1" x="217.56" y="266.93" width="205.78" height="17.02"/><rect class="cls-1" x="217.56" y="303.82" width="205.78" height="17.02"/><rect class="cls-1" x="217.56" y="340.7" width="205.78" height="17.02"/></svg>