<?xml version="1.0" encoding="UTF-8"?><svg id="Capa_1" xmlns="http://www.w3.org/2000/svg" viewBox="0 0 600 600"><defs><style>.cls-1{fill:#1ba0db;}.cls-2{fill:#ffb680;}.cls-3{fill:#ed8a40;}.cls-4{fill:#fff;}.cls-5{fill:#cd337b;}.cls-6{fill:#142535;}.cls-7{fill:#4cd7f8;}.cls-8{fill:#7b549e;}.cls-9{fill:#dbdbdb;}.cls-10{fill:#081019;}.cls-11{fill:#5be88d;}.cls-12{fill:#4f4898;}</style></defs><path class="cls-8" d="M449.59,345.07c0,12.36,10.02,22.4,22.4,22.4s22.41-10.04,22.41-22.4-10.03-22.41-22.41-22.41-22.4,10.03-22.4,22.41Z"/><path class="cls-8" d="M409.81,302.94l22.96,20.4c9.28-12.3,23.28-20.15,38.92-20.15s30.68,8.46,39.92,21.56l23.2-20.07c-14.66-20.64-37.49-33.96-63.12-33.96s-47.19,12.57-61.88,32.22Z"/><path class="cls-8" d="M373.51,270.7l22.97,20.4c17.71-24.16,44.84-39.67,75.21-39.67s58.91,16.32,76.58,41.57l23.2-20.09c-23.08-32.77-59.21-53.95-99.77-53.95s-75.06,20.22-98.19,51.74Z"/><path class="cls-5" d="M141.37,212.17c-8.44-1.51-17.34,8.76-19.87,22.93-2.53,14.17,2.26,26.88,10.71,28.39,8.45,1.51,17.34-8.76,19.87-22.93,2.53-14.17-2.26-26.88-10.71-28.39Z"/><path class="cls-5" d="M140.98,153.08c-46.65,0-84.46,37.81-84.46,84.46s37.81,84.46,84.46,84.46,84.46-37.81,84.46-84.46-37.81-84.46-84.46-84.46ZM193.56,272.29c-9.9,6.97-18.64,5.64-18.64,5.64-2.5-.26-4.65-.84-7.13-1.82-1.35-.53-2.66-1.22-3.86-2.13-4.13-3.18-5.41-6.57-5.81-10.35l-.18-.14.11-.69c-.03-.39-.05-.78-.07-1.17-6.99,8.63-17.18,13.33-27.49,11.49-16.31-2.91-26.71-21.08-23.23-40.57,3.48-19.49,19.52-32.93,35.83-30.02,9.98,1.78,17.73,9.29,21.46,19.31l2.45-15.45,10.98,1.96-8.17,51.01c.4,1.94,1.36,4.22,3.57,5.56,4.43,2.69,11.85,1.24,15.41-4.96.09-.18.17-.37.25-.55.27-.59.53-1.18.77-1.77,2.55-6.19,3.97-12.97,3.97-20.08,0-29.16-23.64-52.79-52.79-52.79s-52.79,23.64-52.79,52.79,23.64,52.79,52.79,52.79c9.13,0,17.73-2.32,25.22-6.4l8.09,11.17c-9.8,5.68-21.17,8.95-33.31,8.95-36.73,0-66.5-29.78-66.5-66.5s29.77-66.51,66.5-66.51,66.19,29.48,66.49,65.95c.17,22.28-9.92,32.24-13.92,35.3Z"/><path class="cls-11" d="M421.92,149.31h-139.67c-15.22,0-27.57,12.34-27.57,27.57s12.34,27.57,27.57,27.57h106.05c.15,6.13-1.75,14.26-10.1,22.62,0,0,25.53-4.87,32.85-22.62h10.88c15.22,0,27.57-12.34,27.57-27.57s-12.34-27.57-27.57-27.57Z"/><path class="cls-12" d="M162.27,66.48h139.67c15.22,0,27.57,12.34,27.57,27.57s-12.34,27.57-27.57,27.57h-106.05c-.15,6.13,1.75,14.26,10.1,22.62,0,0-25.53-4.87-32.85-22.62h-10.88c-15.22,0-27.57-12.34-27.57-27.57s12.34-27.57,27.57-27.57Z"/><path class="cls-9" d="M328.84,177.42c0,3.31-2.68,6-6,6s-6-2.68-6-6,2.68-6,6-6,6,2.68,6,6Z"/><path class="cls-9" d="M358.08,177.42c0,3.31-2.68,6-6,6s-5.99-2.68-5.99-6,2.68-6,5.99-6,6,2.68,6,6Z"/><path class="cls-9" d="M387.33,177.42c0,3.31-2.68,6-6,6s-6-2.68-6-6,2.68-6,6-6,6,2.68,6,6Z"/><path class="cls-9" d="M211.55,94.9c0,3.31-2.68,6-6,6s-6-2.68-6-6,2.68-6,6-6,6,2.68,6,6Z"/><path class="cls-9" d="M240.8,94.9c0,3.31-2.68,6-6,6s-6-2.68-6-6,2.68-6,6-6,6,2.68,6,6Z"/><path class="cls-9" d="M270.04,94.9c0,3.31-2.68,6-6,6s-6-2.68-6-6,2.68-6,6-6,6,2.68,6,6Z"/><path class="cls-10" d="M188.74,291.72H43.46c-8.24,0-14.93,6.68-14.93,14.93v211.95c0,8.24,6.68,14.93,14.93,14.93h145.28c8.24,0,14.93-6.68,14.93-14.93v-211.95c0-8.24-6.68-14.93-14.93-14.93Z"/><path class="cls-6" d="M201.71,291.72H56.43c-8.24,0-14.93,6.68-14.93,14.93v211.95c0,8.24,6.68,14.93,14.93,14.93h145.28c8.24,0,14.93-6.68,14.93-14.93v-211.95c0-8.24-6.68-14.93-14.93-14.93Z"/><path class="cls-4" d="M143.45,519.63c0,2.12-1.72,3.83-3.83,3.83h-21.09c-2.12,0-3.83-1.72-3.83-3.83h0c0-2.12,1.72-3.83,3.83-3.83h21.09c2.12,0,3.83,1.72,3.83,3.83h0Z"/><path class="cls-4" d="M133,300.97c0,2.17-1.76,3.93-3.93,3.93s-3.93-1.76-3.93-3.93,1.76-3.93,3.93-3.93,3.93,1.76,3.93,3.93Z"/><rect class="cls-4" x="56.71" y="310.41" width="144.72" height="196.63"/><rect class="cls-1" x="63.04" y="317.68" width="132.07" height="8.43"/><rect class="cls-12" x="93.14" y="353.74" width="59.28" height="59.84"/><rect class="cls-8" x="102.77" y="353.74" width="62.59" height="59.84"/><path class="cls-1" d="M108.95,388.7h-25.63c-3.29,0-5.98,2.69-5.98,5.98v61.25c0,3.29,2.69,5.98,5.98,5.98h25.63v-73.22Z"/><path class="cls-7" d="M173.4,401.33h-39.74v-6.65c0-3.29-2.69-5.98-5.98-5.98h-34.51c-3.29,0-5.98,2.69-5.98,5.98v61.25c0,3.29,2.69,5.98,5.98,5.98h80.23c3.7,0,6.73-3.03,6.73-6.73v-47.12c0-3.7-3.03-6.73-6.73-6.73Z"/><rect class="cls-10" x="108.78" y="360.65" width="51.86" height="4.61"/><rect class="cls-3" x="274.29" y="351.47" width="9.39" height="46.93"/><rect class="cls-3" x="224.8" y="366.12" width="9.39" height="17.49"/><polygon class="cls-2" points="322.58 374.93 283.68 398.39 283.68 374.93 283.68 351.47 322.58 374.93"/><rect class="cls-2" x="250.26" y="350.19" width="17.35" height="49.49" transform="translate(-115.99 633.87) rotate(-90)"/><polygon class="cls-3" points="341.26 287.64 341.26 264.56 327.34 264.56 303.13 304.69 320.38 304.69 320.38 355.75 332.31 355.75 332.31 304.69 351.55 304.69 341.26 287.64"/><polygon class="cls-2" points="341.26 264.56 317.05 304.69 332.31 304.69 332.31 355.75 350.22 355.75 350.22 304.69 365.47 304.69 341.26 264.56"/></svg>