<?xml version="1.0" encoding="UTF-8"?><svg id="Capa_1" xmlns="http://www.w3.org/2000/svg" viewBox="0 0 403.18 403.18"><defs><style>.cls-1{fill:#fff;}</style></defs><path d="M385.06,72.19c-1.6-6.71-4.46-12.43-8.51-17.01-6.54-7.4-15.88-11.33-27.02-11.36h-10.89c-1.12-.03-2.27-.04-3.47-.04-40.3-.11-124.67,0-165,0-7.16,0-13.01-.02-17.82.12h-18.28s-12.82-1-14.42,13.22l-6.81,46.27s.37,22.03-30.96,23.55c-2.29,0-5.21-.02-11.27-.02-31,0-31.26,14.79-33.53,29.87-4.27,28.25-16.62,120.36-19.94,148.69-.7,5.98-.61,11.01.36,15.17.75,8.89,4.39,17.45,10.49,24.34,8.07,9.1,19.67,14.33,31.83,14.35,39.88.05,87.12.08,134.05.08,41.97,0,83.7-.02,119.69-.07,26.73-.03,38.97-10.65,42.24-36.65,2.49-19.79,4.98-36.3,7.38-52.26,2.5-16.63,5.09-33.82,7.66-54.56,1.2-9.7,2.4-19.39,3.61-29.09,3.82-30.78,7.77-62.61,11.56-93.92.89-7.36.57-14.32-.95-20.69Z"/><path class="cls-1" d="M166.54,70.7h-11.51c-.22,0-.4.05-.52.14-.13.1-.2.24-.23.43l-1.74,11.74c-.03.19,0,.33.1.43.1.1.26.14.48.14h11.51c.37,0,.67.13.89.38.22.25.31.57.25.95l-1.63,10.98c-.06.38-.24.7-.53.95-.3.25-.63.38-1.01.38h-11.51c-.22,0-.4.05-.52.14-.13.1-.2.24-.23.43l-1.76,11.83c-.03.19,0,.33.1.43s.26.14.48.14h11.51c.45,0,.78.13,1.01.38.22.25.31.57.25.95l-1.63,10.98c-.06.38-.24.7-.53.95-.3.26-.67.38-1.12.38h-27.38c-.52,0-.89-.13-1.12-.38-.22-.25-.31-.57-.25-.95l9.53-64.14c.06-.38.23-.7.53-.95.3-.25.71-.38,1.23-.38h27.38c.45,0,.78.13,1.01.38.22.25.31.57.25.95l-1.63,10.98c-.06.38-.24.7-.53.95-.3.25-.67.38-1.12.38Z"/><path class="cls-1" d="M218.31,57.05c.52,0,.86.13,1.01.38.15.25.19.57.14.95l-9.53,64.14c-.06.38-.2.7-.42.95-.22.26-.6.38-1.12.38h-14.19c-.45,0-.77-.1-.96-.29-.2-.19-.3-.48-.32-.86l-5.23-32.55c.02-.13-.07-.19-.25-.19s-.29.1-.32.29l-1.47,16.7-2.31,15.56c-.06.38-.2.7-.42.95-.22.26-.6.38-1.12.38h-13.97c-.45,0-.76-.13-.95-.38-.19-.25-.25-.57-.19-.95l9.53-64.14c.06-.38.22-.7.48-.95.26-.25.62-.38,1.06-.38h14.42c.37,0,.67.11.9.33.23.22.35.49.38.81l5.31,32.74c.04.19.11.29.18.29s.13-.01.17-.05c.04-.03.07-.11.09-.24,0-.06.02-.13.03-.19l1.38-16.8,2.31-15.56c.06-.38.2-.7.42-.95.22-.25.56-.38,1.01-.38h13.97Z"/><path class="cls-1" d="M265.95,58.39l-1.63,10.98c-.06.38-.24.7-.53.95-.3.25-.71.38-1.23.38h-10.17c-.22,0-.38.05-.47.14-.09.1-.15.24-.18.43l-7.61,51.25c-.06.38-.24.7-.53.95-.3.26-.71.38-1.23.38h-13.86c-.45,0-.78-.13-1.01-.38-.22-.25-.31-.57-.25-.95l7.61-51.25c.03-.19.01-.33-.05-.43-.06-.1-.2-.14-.43-.14h-10.06c-.45,0-.76-.13-.95-.38-.19-.25-.25-.57-.19-.95l1.63-10.98c.06-.38.22-.7.48-.95.26-.25.62-.38,1.06-.38h38.23c.52,0,.89.13,1.12.38.22.25.31.57.25.95Z"/><path class="cls-1" d="M298.21,70.7h-11.51c-.22,0-.4.05-.52.14-.13.1-.2.24-.23.43l-1.74,11.74c-.03.19,0,.33.1.43.1.1.26.14.48.14h11.51c.37,0,.67.13.89.38.22.25.31.57.25.95l-1.63,10.98c-.06.38-.24.7-.53.95-.3.25-.63.38-1.01.38h-11.51c-.22,0-.4.05-.52.14-.13.1-.2.24-.23.43l-1.76,11.83c-.03.19,0,.33.1.43.1.1.26.14.48.14h11.51c.45,0,.78.13,1.01.38.22.25.31.57.25.95l-1.63,10.98c-.06.38-.24.7-.53.95-.3.26-.67.38-1.12.38h-27.38c-.52,0-.89-.13-1.12-.38-.22-.25-.31-.57-.25-.95l9.53-64.14c.06-.38.23-.7.53-.95.3-.25.71-.38,1.23-.38h27.38c.45,0,.78.13,1.01.38.22.25.31.57.25.95l-1.63,10.98c-.06.38-.24.7-.53.95-.3.25-.67.38-1.12.38Z"/><path class="cls-1" d="M339.83,122.34c0,.06,0,.13.03.19.03.06.03.16.01.29-.05.32-.22.57-.5.76-.29.19-.66.29-1.1.29h-13.19c-.45,0-.79-.1-1.02-.29-.23-.19-.4-.48-.49-.86l-2.89-25.67c-.07-.06-.13-.13-.2-.19-.07-.06-.17-.1-.32-.1h-.78c-.15,0-.27.03-.35.1-.08.06-.14.16-.15.29l-3.77,25.39c-.06.38-.2.7-.42.95-.22.26-.6.38-1.12.38h-13.86c-.52,0-.89-.13-1.12-.38-.22-.25-.31-.57-.25-.95l9.53-64.14c.06-.38.23-.7.53-.95.3-.25.71-.38,1.23-.38h19.67c2.76,0,5.26.46,7.51,1.38,2.25.92,4.13,2.31,5.64,4.15,1.77,2.1,2.91,4.47,3.41,7.11.5,2.64.55,5.33.14,8.06-.27,1.85-.7,3.58-1.28,5.2-.58,1.62-1.3,3.13-2.18,4.53-.94,1.34-1.98,2.55-3.11,3.63-1.13,1.08-2.43,2.04-3.89,2.86-.09.13-.17.24-.22.33-.05.1-.08.18-.09.24,0,.06-.02.13-.03.19l4.62,27.58ZM326.51,83.3c.7-.7,1.24-1.48,1.63-2.34.39-.86.67-1.86.84-3.01.17-1.15.19-2.16.06-3.05-.13-.89-.44-1.65-.95-2.29-.43-.64-.97-1.11-1.63-1.43-.66-.32-1.48-.48-2.44-.48h-.89c-.15,0-.27.05-.36.14-.09.1-.15.24-.18.43l-1.98,13.36c-.02.13,0,.24.06.33.06.1.16.14.31.14h.89c.89,0,1.72-.14,2.47-.43.75-.29,1.47-.75,2.16-1.38Z"/><path class="cls-1" d="M34.82,312.13l22.49-164.19c.13-.98.53-1.79,1.19-2.44.66-.65,1.55-.98,2.69-.98h30.23c1.14,0,1.86.33,2.18.98.31.65.41,1.47.27,2.44l-17.97,131.21c-.07.49,0,.86.22,1.1.21.24.56.37,1.05.37h24.63c1.14,0,1.94.33,2.43.98.48.65.65,1.47.52,2.44l-3.85,28.1c-.13.98-.53,1.79-1.19,2.44-.66.65-1.56.98-2.69.98h-59.25c-1.14,0-1.95-.32-2.43-.98-.48-.65-.65-1.47-.52-2.44Z"/><path class="cls-1" d="M198.94,144.52c.98,0,1.71.29,2.2.86.49.57.76,1.26.81,2.08l8.45,164.44c.09.49.12.9.08,1.22-.09.65-.37,1.22-.84,1.71-.47.49-1.28.73-2.42.73h-30.23c-1.14,0-1.91-.28-2.32-.86-.41-.57-.55-1.34-.41-2.32l-.08-20.77c.04-.32-.04-.61-.25-.86s-.48-.37-.8-.37h-21.21c-.33,0-.63.12-.9.37-.28.24-.44.53-.48.86l-5.53,20.77c-.3.98-.77,1.75-1.42,2.32-.65.57-1.54.86-2.68.86h-29.99c-1.14,0-1.83-.28-2.08-.86-.25-.57-.33-1.18-.24-1.83.04-.32.09-.65.13-.98l53.24-164.44c.27-.81.77-1.5,1.5-2.08.73-.57,1.5-.86,2.31-.86h33.16ZM173.01,259.11c.49,0,.83-.12,1.03-.37.19-.24.33-.61.39-1.1l.19-53.02c.02-.16-.09-.24-.33-.24s-.38.08-.4.24l-14.58,53.02c-.07.49,0,.86.22,1.1s.48.37.8.37h12.68Z"/><path class="cls-1" d="M307,227.83c2.45,2.28,4.54,4.81,6.28,7.57,1.73,2.77,3.06,5.86,3.97,9.28.91,3.42,1.43,7.05,1.56,10.87.12,3.83-.1,7.86-.68,12.09-1.07,7.82-3.1,14.62-6.09,20.4-2.99,5.78-6.88,10.79-11.69,15.03-4.97,4.24-10.32,7.37-16.04,9.41-5.73,2.04-12,3.05-18.83,3.05h-41.2c-.98,0-1.7-.32-2.18-.98-.48-.65-.65-1.47-.52-2.44l22.49-164.19c.13-.98.53-1.79,1.19-2.44.66-.65,1.47-.98,2.45-.98h35.35c7.8,0,14.53.98,20.2,2.93,5.66,1.95,10.41,4.97,14.24,9.04,3.85,3.91,6.43,8.8,7.74,14.66,1.31,5.86,1.42,12.79.33,20.77-1.05,7.66-3.02,14.34-5.91,20.04-2.9,5.7-6.96,10.43-12.18,14.17-.37.33-.61.57-.71.73-.11.16-.17.33-.19.49-.02.16.12.33.42.49ZM276.12,180.92l-4.18,30.54c-.07.49,0,.86.22,1.1.21.24.56.37,1.05.37h1.22c2.11,0,3.99-.37,5.64-1.1,1.64-.73,3.09-1.83,4.35-3.3,1.26-1.47,2.31-3.21,3.16-5.25.85-2.03,1.45-4.36,1.81-6.96.36-2.6.39-4.97.12-7.09-.28-2.12-.85-3.91-1.7-5.38-.86-1.47-2.01-2.57-3.45-3.3-1.45-.73-3.22-1.1-5.34-1.1h-1.22c-.49,0-.87.12-1.15.37s-.45.61-.52,1.1ZM282.36,261.8c.27-1.95.39-4.07.38-6.35-.02-2.28-.37-4.4-1.08-6.35-.71-1.95-1.74-3.62-3.09-5.01-1.36-1.38-3.25-2.08-5.69-2.08h-3.66c-.49,0-.87.12-1.15.37-.28.24-.45.61-.52,1.1l-4.89,35.67c-.07.49,0,.86.22,1.1.21.24.56.37,1.05.37h3.41c2.6,0,4.75-.61,6.47-1.83,1.71-1.22,3.14-2.77,4.29-4.64,1.15-1.87,2.08-3.91,2.79-6.11.7-2.2,1.2-4.28,1.46-6.23Z"/><path class="cls-1" d="M336.36,299.82c.56-4.41,1.11-8.65,1.66-12.76l12.55,18.55c-.56,4.1-1.12,8.33-1.69,12.72l-12.53-18.52Z"/><path class="cls-1" d="M270.82,351.06c-4.23,0-8.5,0-12.81,0l-15.49-14.34c4.31,0,8.58,0,12.81,0l15.49,14.34Z"/><path class="cls-1" d="M60.63,351c-9.83-.01-19.2-4.24-25.72-11.59-1.33-1.5-2.52-3.1-3.55-4.78,4.11,1.37,9.19,2.03,15.3,2.03,55.56.08,126.17.1,189.46.07l15.49,14.34c-63.96.03-134.78,0-190.98-.07Z"/><path class="cls-1" d="M338.89,344.43c-3.48,3.02-8.16,4.95-14.37,5.9l-15.58-14.42c15.97-2.53,23.72-11.49,26.58-29.71l12.51,18.48c-1.56,9.41-4.5,15.73-9.14,19.76Z"/><path class="cls-1" d="M378.69,91.73c-3.79,31.3-7.74,63.12-11.56,93.89-1.2,9.7-2.41,19.4-3.61,29.09-1.72,13.87-3.45,26.16-5.15,37.76l-12.65-18.69c1.7-11.72,3.39-23.98,5.1-38,5.03-41.29,10.11-82.59,15.03-123.88.83-6.99.71-12.3-.48-16.33,2.18,1.29,4.14,2.91,5.86,4.85,6.29,7.11,9.01,18.52,7.46,31.3Z"/></svg>