<?xml version="1.0" encoding="UTF-8"?><svg id="Capa_1" xmlns="http://www.w3.org/2000/svg" viewBox="0 0 600 600"><defs><style>.cls-1{fill:#ffb680;}.cls-2{fill:#fff;}.cls-3{fill:#142535;}.cls-4{fill:#7b549e;}.cls-5{fill:#081019;}.cls-6{fill:#4f4898;}</style></defs><path class="cls-5" d="M445.32,34.42H126.18c-18.11,0-32.79,14.68-32.79,32.79v465.58c0,18.11,14.68,32.79,32.79,32.79h319.13c18.11,0,32.79-14.68,32.79-32.79V67.21c0-18.11-14.68-32.79-32.79-32.79Z"/><path class="cls-3" d="M473.82,34.42H154.68c-18.11,0-32.79,14.68-32.79,32.79v465.58c0,18.11,14.68,32.79,32.79,32.79h319.13c18.11,0,32.79-14.68,32.79-32.79V67.21c0-18.11-14.68-32.79-32.79-32.79Z"/><path class="cls-2" d="M345.84,535.06c0,4.65-3.77,8.42-8.42,8.42h-46.32c-4.65,0-8.42-3.77-8.42-8.42h0c0-4.65,3.77-8.42,8.42-8.42h46.32c4.65,0,8.42,3.77,8.42,8.42h0Z"/><path class="cls-2" d="M322.89,54.75c0,4.77-3.87,8.64-8.64,8.64s-8.64-3.87-8.64-8.64,3.87-8.64,8.64-8.64,8.64,3.87,8.64,8.64Z"/><rect class="cls-2" x="155.3" y="75.48" width="317.9" height="431.93"/><path class="cls-6" d="M314.52,368.91c-8.92,3.93-17.09,7.34-25.09,11.12-6.58,3.11-9,3-14.06-2.05-15.98-15.94-31.95-31.9-47.89-47.88-5.13-5.15-5.29-7.55-2.22-14.04,3.79-8,7.23-16.16,11.22-25.15-10.31-2.15-19.45-4.08-28.61-5.96-9.44-1.93-18.88-3.86-28.34-5.68-4.36-.84-8.88-2.38-9.17-7.1-.19-3.26,1.6-7.45,3.91-9.9,10.63-11.24,21.57-22.2,32.82-32.82,2.64-2.49,6.82-4.22,10.47-4.59,15.93-1.63,31.91-2.71,47.89-3.82,4.05-.28,7.04-1.66,9.73-4.88,23.92-28.72,54.64-45.14,91.59-50.03,20.73-2.74,41.39-2.12,61.94,1.82,4.32.83,7.6,3.04,8.38,7.49,8.5,48.1,3.91,93.66-27.18,133.61-5.88,7.56-13.14,14.12-20.24,20.62-3.5,3.21-5.16,6.54-5.46,11.18-1.02,15.62-2.06,31.24-3.7,46.8-.4,3.81-2.26,8.14-4.86,10.91-10.34,11.01-21.25,21.48-31.9,32.2-3.05,3.07-6.18,5.91-10.94,4.39-4.63-1.48-5.91-5.38-6.77-9.7-3.66-18.35-7.46-36.66-11.52-56.53ZM420.9,182.95c-15.25,0-29.96-.6-44.61.1-61.58,2.97-103.41,52.24-118.01,93.42-4.91,13.85-9.67,27.76-14.21,41.74-.48,1.47.48,4.1,1.67,5.32,11.84,12.1,23.91,23.97,35.79,36.03,2.2,2.24,3.87,2.75,6.99,1.44,8.19-3.43,16.47-6.92,25.03-9.16,21.27-5.57,40.2-15.09,57.57-28.74,45.64-35.88,57.44-83.45,49.77-140.16ZM196.34,264.75c15.25,3.13,29.54,6.07,43.42,8.92,5.43-11.61,10.67-22.83,16.09-34.43-11.88.96-23.62,1.89-35.35,2.89-.85.07-1.9.33-2.46.89-7.06,6.98-14.04,14.04-21.7,21.73ZM366.14,349.5c-11.64,5.46-22.87,10.72-34.44,16.14,2.86,13.89,5.79,28.17,8.92,43.42,7.73-7.7,14.78-14.69,21.76-21.75.56-.57.81-1.62.88-2.47.98-11.72,1.91-23.45,2.87-35.33Z"/><path class="cls-1" d="M196.99,417.61c-2.66-2.27-6.35-3.92-6.99-6.36-.77-2.97,0-7.46,1.93-9.8,5.06-6.15,11.11-11.5,16.77-17.16,6.17-6.18,12.3-12.4,18.54-18.52,4.52-4.43,9.77-4.7,13.45-.9,3.53,3.64,3.29,8.79-.94,13.07-11.64,11.78-23.33,23.5-35.16,35.09-1.83,1.79-4.48,2.74-7.61,4.57Z"/><path class="cls-1" d="M228.34,343.12c-1.77,3.04-2.65,5.53-4.33,7.25-9.13,9.38-18.41,18.63-27.75,27.81-4.25,4.17-9.49,4.27-13.05.6-3.5-3.61-3.46-8.51.56-12.61,9.29-9.49,18.74-18.82,28.13-28.21,3-3,6.73-4.34,10.34-2,2.46,1.59,4.01,4.61,6.11,7.16Z"/><path class="cls-1" d="M262.61,377.23c2.33,1.92,5.56,3.37,6.59,5.77,1.04,2.41,1.09,6.86-.46,8.52-10.04,10.77-20.47,21.19-31.14,31.33-3.47,3.3-7.95,2.52-11.24-1.01-3.29-3.52-3.61-7.92-.33-11.35,9.8-10.25,19.91-20.22,30.06-30.13,1.44-1.41,3.8-1.87,6.52-3.13Z"/><path class="cls-4" d="M384.34,260.98c-.45,21.81-18.25,38.91-39.95,38.41-21.82-.5-38.92-18.28-38.44-39.97.48-21.84,18.13-38.78,39.99-38.36,21.83.41,38.85,18.11,38.4,39.92ZM345.08,281.84c12.23.04,21.79-9.47,21.79-21.67,0-11.98-9.34-21.46-21.28-21.63-12.23-.17-21.93,9.24-22.04,21.4-.12,12.21,9.37,21.86,21.54,21.9Z"/></svg>