<?xml version="1.0" encoding="UTF-8"?><svg id="Capa_1" xmlns="http://www.w3.org/2000/svg" viewBox="0 0 600 349.53"><defs><style>.cls-1{fill:#fff;}.cls-2{fill:#6cf;}.cls-3{fill:#080717;}</style></defs><rect class="cls-1" x="224.19" y="42.92" width="356.06" height="210.73" rx="8.82" ry="8.82"/><path class="cls-3" d="M563.76,255.53H240.68c-10.13,0-18.36-8.24-18.36-18.36V59.42c0-10.12,8.24-18.36,18.36-18.36h323.08c10.13,0,18.36,8.24,18.36,18.36v177.75c0,10.12-8.24,18.36-18.36,18.36ZM240.68,44.8c-8.06,0-14.62,6.56-14.62,14.62v177.75c0,8.06,6.56,14.62,14.62,14.62h323.08c8.06,0,14.62-6.56,14.62-14.62V59.42c0-8.06-6.56-14.62-14.62-14.62H240.68Z"/><path class="cls-3" d="M245.27,68.64c-4.32,0-7.83-3.51-7.83-7.83s3.51-7.83,7.83-7.83,7.83,3.51,7.83,7.83-3.51,7.83-7.83,7.83ZM245.27,56.72c-2.26,0-4.09,1.84-4.09,4.09s1.84,4.09,4.09,4.09,4.09-1.84,4.09-4.09-1.84-4.09-4.09-4.09Z"/><path class="cls-3" d="M265.33,68.64c-4.32,0-7.83-3.51-7.83-7.83s3.51-7.83,7.83-7.83,7.83,3.51,7.83,7.83-3.51,7.83-7.83,7.83ZM265.33,56.72c-2.26,0-4.09,1.84-4.09,4.09s1.83,4.09,4.09,4.09,4.09-1.84,4.09-4.09-1.84-4.09-4.09-4.09Z"/><path class="cls-3" d="M285.4,68.64c-4.32,0-7.83-3.51-7.83-7.83s3.51-7.83,7.83-7.83,7.83,3.51,7.83,7.83-3.51,7.83-7.83,7.83ZM285.4,56.72c-2.26,0-4.09,1.84-4.09,4.09s1.84,4.09,4.09,4.09,4.09-1.84,4.09-4.09-1.84-4.09-4.09-4.09Z"/><rect class="cls-3" x="391.67" y="187.56" width="19.08" height="23.8"/><rect class="cls-2" x="429.82" y="144.73" width="19.08" height="66.63"/><rect class="cls-3" x="467.97" y="173.29" width="19.08" height="38.08"/><rect class="cls-2" x="506.13" y="101.89" width="19.08" height="109.47"/><path class="cls-3" d="M343.61,103.77h-66.77c-1.03,0-1.87-.84-1.87-1.87s.84-1.87,1.87-1.87h66.77c1.03,0,1.87.84,1.87,1.87s-.84,1.87-1.87,1.87Z"/><path class="cls-3" d="M310.23,114.09h-33.38c-1.03,0-1.87-.84-1.87-1.87s.84-1.87,1.87-1.87h33.38c1.03,0,1.87.84,1.87,1.87s-.84,1.87-1.87,1.87Z"/><path class="cls-1" d="M380.73,196.03c-.02-.43-.17-.84-.43-1.18-1.6-2.14-3.78-3.7-6.24-4.58l-.3-1.72c-1.11-6.35-6.34-11.24-12.59-11.64-.92-.05-1.83,0-2.74.12.08-.05.17-.06.24-.12.95-.71,1.14-2.06.43-3l-.51-.68c-1.79-2.39-4.22-4.16-6.96-5.16l15.81-28.28c2.04-3.66,1.65-8.12-1-11.36-1.89-2.31-4.69-3.67-7.68-3.71-2.91-.03-5.83,1.22-7.8,3.47l-23.87,27.37.31-6.32c.26-5.17-3.24-9.7-8.31-10.76-5.6-1.17-11.14,2.42-12.36,8l-10.11,46.09c-.04.2-.05.41-.04.61l-21.21,27.52-22.35,28.49c-.36.46-.52,1.06-.43,1.64.09.58.41,1.11.9,1.44l46.6,32.34c.37.26.8.38,1.22.38.65,0,1.29-.3,1.71-.85l14.32-19,29.55-21.45c8.83-6.41,14.76-15.75,16.79-26.42l8.42.39c.29.01.56-.03.82-.12,5.19-1.85,8.5-6.8,8.24-12.31l-.44-9.16Z"/><path class="cls-3" d="M298.72,194.88c-.13,0-.27-.01-.4-.04-1.01-.22-1.65-1.22-1.43-2.23l10.11-46.09c1.19-5.44,6.59-8.93,12.04-7.79,4.94,1.03,8.34,5.44,8.09,10.48l-.63,12.66c-.05,1.03-.93,1.82-1.96,1.78-1.03-.05-1.83-.93-1.78-1.96l.63-12.66c.16-3.19-1.99-5.98-5.12-6.63-3.45-.72-6.86,1.49-7.62,4.93l-10.11,46.09c-.19.87-.97,1.47-1.82,1.47Z"/><path class="cls-3" d="M301.31,284.69c-.37,0-.74-.11-1.06-.33l-46.6-32.34c-.42-.29-.71-.75-.78-1.26-.08-.51.06-1.03.38-1.43l22.35-28.49,38.76-50.28,36.82-42.21c1.91-2.19,4.72-3.41,7.58-3.38,2.91.05,5.63,1.36,7.47,3.61,2.58,3.16,2.97,7.49.98,11.05l-17.06,30.56c-.5.9-1.64,1.22-2.54.72-.9-.5-1.23-1.64-.72-2.54l17.06-30.56c1.23-2.21,1-4.9-.61-6.86-1.14-1.4-2.83-2.21-4.64-2.24-1.86-.06-3.52.74-4.71,2.1l-36.75,42.12-38.7,50.21-21.14,26.94,43.5,30.18,13.43-17.82c.11-.15.24-.28.39-.39l29.81-21.64c8.3-6.03,13.77-14.92,15.41-25.05.02-.14.06-.28.12-.41.02-.54.27-1.05.7-1.4l5.24-4.19c.79-.63,1.94-.52,2.59.25.65.77.58,1.92-.17,2.6l-2.17,1.95,4.5,1.13c3.3-1.5,6.88-6.25,6.42-9.75l-.43-8.71c-1.67-1.98-4.08-3.19-6.69-3.33-2.93-.17-5.77,1.06-7.67,3.25l-7.78,9.01c-.67.78-1.86.87-2.64.19-.78-.68-.87-1.86-.19-2.64l7.78-9.01c2.65-3.07,6.64-4.77,10.71-4.54,3.89.22,7.47,2.13,9.81,5.25.22.3.35.66.37,1.03l.44,9.16c.73,5.47-4.53,12.08-9.38,13.81-.35.12-.73.14-1.08.05l-7.03-1.76c-2.05,10.55-7.93,19.79-16.66,26.13l-29.59,21.47-14.35,19.04c-.37.49-.93.74-1.49.74Z"/><path class="cls-3" d="M327.36,186.15c-.43,0-.87-.15-1.22-.45-.78-.67-.87-1.86-.19-2.64l9.05-10.47c3.02-3.5,7.59-5.43,12.2-5.18,4.44.25,8.52,2.43,11.18,5.99.05.07.1.15.14.23l1.53,2.8c.5.91.16,2.04-.74,2.54-.91.5-2.04.16-2.54-.74l-1.46-2.68c-2-2.61-5.03-4.21-8.32-4.39-3.47-.19-6.9,1.26-9.17,3.89l-9.05,10.47c-.37.43-.89.65-1.42.65Z"/><path class="cls-3" d="M341.33,195.93c-.43,0-.87-.15-1.22-.45-.78-.68-.87-1.86-.19-2.64l9.05-10.47c3.02-3.5,7.58-5.43,12.2-5.18,6.12.39,11.25,5.19,12.34,11.41l.41,2.35c.18,1.02-.5,1.99-1.52,2.16-1.02.18-1.99-.5-2.16-1.52l-.41-2.35c-.79-4.54-4.47-8.04-8.76-8.31-3.55-.2-6.99,1.25-9.26,3.88l-9.05,10.47c-.37.43-.89.65-1.42.65Z"/><polygon class="cls-1" points="206.34 281.44 256.09 241.63 310 283.1 295.07 334.51 212.97 334.51 206.34 281.44"/><path class="cls-1" d="M229.61,335.34H19.74v-116.45l39.67-7.68,6.77-25.14,78.78,17.42.83,19.07,25.92,13.6c22.18,9.62,43.21,27.87,48.4,53.1l9.49,46.09Z"/><polygon class="cls-1" points="206.34 281.44 256.09 241.63 310 283.1 295.07 334.51 229.17 334.51 206.34 281.44"/><path class="cls-3" d="M295.07,336.38h-65.9c-1.03,0-1.87-.84-1.87-1.87s.84-1.87,1.87-1.87h64.5l14.18-48.84-51.73-39.79-48.61,38.89c-.81.65-1.98.51-2.63-.29-.65-.81-.52-1.98.29-2.63l49.76-39.81c.67-.54,1.62-.55,2.31-.02l53.9,41.46c.61.47.87,1.26.66,2l-14.93,51.42c-.23.8-.96,1.35-1.8,1.35Z"/><polygon class="cls-1" points="64.68 223.8 139.63 214.74 141.36 139.36 71.38 137.77 64.68 223.8"/><path class="cls-3" d="M64.68,225.67c-.48,0-.94-.18-1.29-.52-.4-.39-.61-.94-.57-1.5l6.71-86.03c.08-.99.95-1.74,1.91-1.72l69.97,1.6c1.03.02,1.85.88,1.83,1.91l-1.72,75.37c-.02.93-.72,1.7-1.64,1.81l-74.96,9.06c-.07,0-.15.01-.22.01ZM73.11,139.68l-6.39,81.99,71.08-8.6,1.64-71.88-66.33-1.51Z"/><path class="cls-3" d="M98.64,44.25s33.52,27.78,42.25,24.32c8.73-3.47,29.88-16.46,24.29-32.48-5.59-16.02-10.65-10.42-17.79-8.63-7.15,1.79-9.59-15.59-14.29-15.14-4.7.45-9.29,3.67-17.62,11.06-8.32,7.38-16.84,20.87-16.84,20.87Z"/><path class="cls-1" d="M88.58,165.31c-16.09-5.12-30.44-16.38-39.33-32.61-17.95-32.8-6.35-72.76,25.01-90.86,51.45-29.7,84.91,12.58,88.59,22.99.86,2.44,1.7,4.8,2.53,7.07,1.84,3.65,3.33,7.39,4.48,11.18,3.56,7.81,7.5,13.42,12.94,15.28,8.34,2.85,3.82,67.5-44.52,62.75l-49.71,4.19Z"/><path class="cls-3" d="M88.58,167.18c-.19,0-.38-.03-.57-.09-17.24-5.49-31.58-17.38-40.4-33.49-18.31-33.46-7.02-74.48,25.71-93.38,19.52-11.27,38.46-13.64,56.31-7.05,19.52,7.21,32.41,23.77,34.98,31.04.85,2.4,1.67,4.71,2.49,6.95,1.83,3.64,3.35,7.42,4.52,11.26,3.81,8.32,7.45,12.69,11.79,14.18,5.19,1.77,5.66,14.94,3.12,26.64-2.45,11.28-7.53,21.29-14.32,28.19-8.88,9.02-20.35,12.91-34.11,11.56-1.03-.1-1.78-1.02-1.68-2.04.1-1.03,1.02-1.78,2.04-1.68,32.89,3.23,42.25-27.11,44.34-36.48,3.03-13.64.74-22.16-.61-22.64-5.42-1.85-9.75-6.88-14.04-16.28-.03-.08-.06-.15-.09-.23-1.12-3.71-2.59-7.37-4.36-10.88-.03-.06-.06-.13-.09-.2-.83-2.28-1.67-4.65-2.54-7.09-1.74-4.92-13.17-21.54-32.75-28.77-16.75-6.19-34.63-3.9-53.14,6.78-30.96,17.87-41.63,56.68-24.3,88.34,8.35,15.26,21.94,26.53,38.25,31.72.98.31,1.53,1.37,1.22,2.35-.25.8-.99,1.3-1.78,1.3Z"/><path class="cls-3" d="M62.54,30.52c21.22-11.62,45.95-10.9,66.37-.34-6.35,1.52-12.57,3.83-18.51,7.08-40.3,22.06-52.85,76.71-28.02,122.07,1.38,2.52,2.86,4.94,4.4,7.3-20.89-3.89-40.15-17.05-51.36-37.54-19.47-35.58-7.33-79.71,27.13-98.57Z"/><path class="cls-3" d="M118.35,67.51c-2.34-9.88-15-8.54-6.52-13.45,16.02-9.3,21.67-28.47,21.67-28.47-39.45-10.65-80.3,48.29-80.3,48.29l10.15,78.71,6.25,18.27,19.91-1.71c6.61-.57,12.08-5.38,13.49-11.86l7.39-33.86c-.3.19-.6.39-.92.56-7.59,4.15-17.11,1.37-21.26-6.22-4.15-7.59-1.37-17.11,6.22-21.26,7.59-4.15,17.11-1.37,21.26,6.22.02.04.04.09.06.13,2.13-.78,7-3.04,5.3-6.95-2.16-4.96-.36-18.5-2.7-28.38Z"/><path class="cls-3" d="M172.53,130.89c-.07,0-.14,0-.21-.01-6.83-.75-10.29-6.94-10.43-7.2-.5-.91-.16-2.04.74-2.54.91-.5,2.04-.16,2.54.74.05.09,2.72,4.75,7.56,5.28,1.03.11,1.77,1.04,1.65,2.06-.11.96-.92,1.66-1.86,1.66Z"/><path class="cls-3" d="M108.96,111.71c-.76,0-1.48-.47-1.76-1.23h0c-.02-.05-1.95-5.1-6.68-6.37-1-.27-1.59-1.29-1.32-2.29.27-1,1.29-1.59,2.29-1.32,6.64,1.78,9.12,8.42,9.22,8.7.35.97-.15,2.04-1.12,2.4-.21.08-.43.11-.64.11Z"/><path class="cls-3" d="M143.53,79.4c-.92,0-1.72-.68-1.85-1.62-.43-3.21,1.64-7.54,5.04-10.51,3.67-3.21,8.14-4.3,12.58-3.08,1,.27,1.58,1.3,1.31,2.3-.27,1-1.3,1.58-2.3,1.31-4.3-1.18-7.56.93-9.12,2.29-2.67,2.33-4.03,5.49-3.8,7.19.14,1.02-.58,1.97-1.6,2.1-.08.01-.17.02-.25.02Z"/><path class="cls-3" d="M157.9,88.28c1.17,1.65,3.09,2.31,4.28,1.47,1.19-.84,1.21-2.87.03-4.52-1.17-1.65-3.09-2.31-4.28-1.47-1.19.84-1.21,2.87-.03,4.52Z"/><path class="cls-3" d="M140.86,159.51l-.55,24.12c-10.18-4.37-19.04-12.05-24.78-22.53-2.29-4.19-3.93-8.56-4.96-12.99,8.63,6.99,19.3,10.94,30.29,11.4Z"/><path class="cls-1" d="M19.74,218.89l39.67-7.68,6.77-25.14,78.78,17.42.83,19.07,25.92,13.6c22.18,9.62,43.21,27.87,48.4,53.1l9.49,46.09L19.74,218.89Z"/><path class="cls-3" d="M229.61,337.21c-.87,0-1.65-.61-1.83-1.49l-9.49-46.09c-4.42-21.47-22.11-40.82-47.32-51.76l-26.05-13.66c-.59-.31-.97-.91-1-1.57l-.77-17.64-75.64-16.72-6.31,23.42c-.19.69-.75,1.21-1.45,1.35l-39.67,7.68c-1.02.2-2-.47-2.19-1.48-.2-1.01.47-1.99,1.48-2.19l38.52-7.46,6.47-24.02c.26-.97,1.23-1.56,2.21-1.34l78.78,17.41c.83.18,1.43.9,1.46,1.74l.78,18,24.97,13.1c37.82,16.4,47.13,43.49,49.37,54.38l9.49,46.09c.21,1.01-.44,2-1.45,2.21-.13.03-.25.04-.38.04Z"/></svg>