<?xml version="1.0" encoding="UTF-8"?><svg id="Capa_1" xmlns="http://www.w3.org/2000/svg" viewBox="0 0 600 600"><defs><style>.cls-1{fill:#1d2b67;}.cls-2{fill:#7b549e;}.cls-3{fill:#dbdbdb;}.cls-4{fill:#eebd2c;}.cls-5{fill:#474849;}.cls-6{fill:#4f4898;}.cls-7{opacity:.7;}</style></defs><g class="cls-7"><path class="cls-3" d="M285.87,553.62c2.31.13,4.62.22,6.93.29v-72.92c-16.6-.06-33.41,1.52-50.24,4.69,11.95,23.32,26.4,46,43.31,67.94Z"/><path class="cls-3" d="M194.66,498.97c16.26,17.22,34.96,33.99,56.07,50.29,5.23,1.02,10.51,1.87,15.82,2.57-14.87-20.42-27.73-41.44-38.53-63.01-11,2.68-22.13,6.07-33.36,10.15Z"/><path class="cls-3" d="M208.32,389.87c5.97,28.19,15.22,55.71,27.69,82.43,19-3.85,38.02-5.77,56.8-5.7v-88.65c-15.44.17-30.8,1.41-46.02,3.71-12.91,1.96-25.74,4.7-38.46,8.21Z"/><path class="cls-3" d="M180.21,504.58c-6.25,2.58-12.52,5.37-18.81,8.37,17.38,11.36,36.01,20.48,55.52,27.21-13.37-11.64-25.61-23.5-36.71-35.58Z"/><path class="cls-3" d="M239.52,130.39c-9.49,21.96-18.69,47.31-25.78,75.22-.63,2.5-1.24,4.99-1.83,7.48,11.55,3.04,23.17,5.47,34.87,7.24,15.22,2.31,30.58,3.54,46.02,3.71v-88.66c-.31,0-.62,0-.93,0-17.32,0-34.84-1.67-52.36-5Z"/><path class="cls-3" d="M245.59,116.87c15.81,2.8,31.61,4.19,47.21,4.13V46.09c-2.42.07-4.84.17-7.25.31-6.05,8.6-22.86,33.77-39.97,70.48Z"/><path class="cls-3" d="M204.64,369.87c.3,1.94.62,3.89.95,5.82,13.03-3.54,26.17-6.32,39.4-8.32,15.82-2.38,31.77-3.65,47.81-3.82v-56.36h-92.63c-.21,21.19,1.27,42.11,4.46,62.68Z"/><path class="cls-3" d="M208.81,227.15c-4.5,22.07-7.24,43.99-8.23,65.65h92.23v-54.38c-16.04-.17-31.99-1.43-47.81-3.81-12.14-1.83-24.21-4.32-36.18-7.46Z"/><path class="cls-3" d="M194.93,223.22c-18.7-5.72-37.16-13.04-55.33-21.94-2.06,4.65-4.02,9.29-5.84,13.93-10.26,26.14-16.59,52.14-18.93,77.6h71.35c1.02-22.97,3.94-46.2,8.76-69.59Z"/><path class="cls-3" d="M432.15,120.28c14.18,19.81,26.35,39.91,36.38,60.06,19.3-10.04,33.3-19.3,40.68-24.51-8.69-12.55-18.56-24.42-29.59-35.45-10.9-10.9-22.63-20.68-35.03-29.3-8.23,4.72-16.4,9.06-24.52,13.01,4,5.14,8.04,10.54,12.09,16.19Z"/><path class="cls-3" d="M113.86,320.59c.69,28.8,6.66,56.86,17.87,84.08,19.66-10.17,39.68-18.48,59.98-24.89-.47-2.67-.92-5.34-1.33-8.02-3.27-21.2-4.79-42.75-4.59-64.56h-71.87c-.15,4.49-.17,8.95-.07,13.4Z"/><path class="cls-3" d="M231,113.88c13.62-29.81,27.23-52.42,35.97-65.77-5.39.69-10.73,1.55-16.03,2.59-5.45,4.81-26.89,24.31-51.13,54.15,10.49,3.62,20.9,6.64,31.19,9.03Z"/><path class="cls-3" d="M221.67,475.57c-12.11-26.46-21.19-53.7-27.18-81.58-19.24,6.18-38.23,14.15-56.89,23.85,11.45,23.91,27.01,47.15,46.65,69.66,12.58-4.8,25.08-8.79,37.43-11.93Z"/><path class="cls-3" d="M190.41,116.78c-3,3.92-6.01,7.99-9.01,12.19-13.99,19.58-25.94,39.42-35.71,59.26,17.21,8.44,34.69,15.41,52.38,20.89.6-2.52,1.22-5.05,1.86-7.57,7.03-27.55,15.94-52.52,25.18-74.29-11.45-2.77-23.03-6.27-34.69-10.48Z"/><path class="cls-3" d="M169.93,120.28c2.17-3.03,4.33-5.98,6.49-8.86-9.98-4.07-20.01-8.66-30.05-13.74-9.08,6.93-17.77,14.49-25.99,22.71-10.99,10.99-20.84,22.83-29.51,35.34,13.8,9.65,27.81,18.31,42.02,25.94,10.16-20.59,22.55-41.14,37.05-61.39Z"/><path class="cls-3" d="M120.46,209.69c1.96-4.99,4.07-9.98,6.3-14.98-14.8-7.92-29.4-16.9-43.75-26.93-22.9,37.42-35.68,80.24-36.92,125.02h54.28c2.37-27.32,9.09-55.17,20.08-83.12Z"/><path class="cls-3" d="M222.36,58.02c-22.16,7.08-43.24,17.2-62.72,30.17,8.67,4.19,17.32,7.98,25.93,11.38,13.73-17.26,26.68-31.3,36.79-41.55Z"/><path class="cls-3" d="M99.47,320.85c-.11-4.53-.09-9.09.05-13.66h-53.43c1.25,45.34,14.34,88.66,37.78,126.41,11.55-8.03,23.26-15.38,35.11-22.05-12.25-29.28-18.78-59.55-19.51-90.71Z"/><path class="cls-3" d="M124.9,424.74c-11.16,6.33-22.2,13.29-33.11,20.88,8.44,12.02,17.99,23.39,28.59,33.99,8.69,8.69,17.9,16.66,27.56,23.9,7.42-3.71,14.82-7.15,22.21-10.32-18.82-22.13-33.92-44.97-45.25-68.47Z"/><path class="cls-3" d="M311.65,481.76c-1.48-.12-2.97-.22-4.46-.31v72.46c3.05-.08,6.09-.23,9.11-.42,15.9-20.66,29.64-41.96,41.16-63.85-15.3-4.05-30.53-6.66-45.81-7.87Z"/><path class="cls-3" d="M386.55,538.95c14.81-5.35,29.08-12.09,42.67-20.15-4.66-2.54-9.31-4.95-13.93-7.22-8.91,9.26-18.49,18.38-28.74,27.37Z"/><path class="cls-3" d="M401.46,505.15c-10.03-4.41-20-8.21-29.92-11.39-10.21,19.73-22.15,39.01-35.79,57.77,5.49-.77,10.94-1.72,16.34-2.84,18.28-14.17,34.74-28.68,49.37-43.54Z"/><path class="cls-3" d="M364.07,476.51c13.21-27.46,23-55.78,29.3-84.82-3.1-.88-6.23-1.73-9.42-2.55-25.63-6.56-51.29-10.24-76.75-11.05v88.94c1.87.11,3.73.23,5.59.38,17.13,1.36,34.18,4.37,51.28,9.09Z"/><path class="cls-3" d="M502.61,320.85c-.74,31.58-7.43,62.24-20,91.88,15.22,8.31,26.63,15.81,33.61,20.72,23.38-37.72,36.43-80.98,37.68-126.26h-51.35c.14,4.57.16,9.12.05,13.66Z"/><path class="cls-3" d="M474.75,193.44c2.45,5.42,4.74,10.84,6.87,16.25,10.99,27.95,17.71,55.8,20.08,83.12h52.2c-1.24-44.73-13.99-87.49-36.83-124.88-7.98,5.66-22.46,15.21-42.33,25.51Z"/><path class="cls-3" d="M425.48,500.59c5.81,2.94,11.65,6.08,17.52,9.41,12.99-8.88,25.25-19.02,36.61-30.39,10.63-10.63,20.2-22.04,28.66-34.1-6.45-4.51-17.25-11.61-31.7-19.55-12.54,25.69-29.59,50.59-51.09,74.63Z"/><path class="cls-3" d="M396.16,377.52c.45-2.55.88-5.1,1.28-7.65,3.19-20.57,4.67-41.49,4.46-62.68h-94.71v56.5c26.85.82,53.89,4.71,80.89,11.66,2.72.7,5.41,1.43,8.07,2.17Z"/><path class="cls-3" d="M461.85,199.84c-15.83,7.52-34.33,15.08-55.09,21.51,5.05,24.02,8.11,47.88,9.15,71.46h71.35c-2.34-25.46-8.67-51.46-18.93-77.6-2.01-5.12-4.17-10.24-6.48-15.36Z"/><path class="cls-3" d="M488.22,320.59c.11-4.44.08-8.91-.06-13.4h-71.87c.21,21.81-1.31,43.36-4.59,64.56-.51,3.32-1.08,6.62-1.68,9.92,22.97,7.33,43.07,15.99,59.75,24.35,11.57-27.65,17.74-56.15,18.44-85.43Z"/><path class="cls-3" d="M411.96,494.08c22.03-24.12,39.33-49.09,51.85-74.84-15.86-7.99-34.95-16.3-56.63-23.35-6.39,29.03-16.14,57.35-29.18,84.83,11.27,3.71,22.57,8.16,33.96,13.36Z"/><path class="cls-3" d="M420.68,128.98c-4.69-6.57-9.41-12.8-14.05-18.68-10.65,4.66-21.24,8.66-31.79,12,9.99,22.9,19.75,49.59,27.32,79.26.49,1.9.96,3.8,1.42,5.7,19.52-6.13,37.03-13.34,52.07-20.5-9.64-19.35-21.33-38.69-34.97-57.77Z"/><path class="cls-3" d="M430.96,82.23c-15.88-9.59-32.73-17.37-50.27-23.22,8.54,8.7,18.98,19.99,30.15,33.55,6.67-3.17,13.37-6.61,20.12-10.33Z"/><path class="cls-3" d="M354.7,113.08c-16.39-34.47-32.18-58.13-38.09-66.54-3.13-.2-6.27-.35-9.42-.44v74.45c1.49-.09,2.97-.19,4.46-.31,14.36-1.14,28.68-3.52,43.05-7.15Z"/><path class="cls-3" d="M397.19,98.69c-21.29-25.39-39.58-42.24-45.43-47.44-5.44-1.12-10.92-2.06-16.45-2.82,8.27,12.66,20.79,33.44,33.55,60.66,9.4-2.92,18.83-6.38,28.33-10.39Z"/><path class="cls-3" d="M389.75,211.31c-.46-1.9-.92-3.8-1.41-5.7-7.53-29.63-17.43-56.38-27.54-79.24-16.01,4.21-31.97,6.94-48.01,8.21-1.86.15-3.73.27-5.59.38v88.94c25.46-.81,51.12-4.49,76.75-11.05,1.95-.5,3.88-1.01,5.8-1.54Z"/><path class="cls-3" d="M392.9,225.37c-1.59.43-3.2.86-4.81,1.28-27,6.95-54.04,10.83-80.89,11.65v54.51h94.31c-1.02-22.25-3.89-44.76-8.6-67.44Z"/></g><rect class="cls-1" x="168.78" y="394.57" width="4.65" height="61.29" transform="translate(-285.79 388.71) rotate(-63.51)"/><rect class="cls-1" x="470.56" y="371.9" width="4.64" height="73.78" transform="translate(-150.96 448.11) rotate(-44.45)"/><rect class="cls-1" x="373.87" y="403.91" width="75.78" height="4.65" transform="translate(-164.39 457.44) rotate(-49.69)"/><rect class="cls-1" x="152.38" y="179.28" width="37.33" height="4.65" transform="translate(-16.84 345.72) rotate(-87.85)"/><rect class="cls-1" x="113.01" y="188.51" width="4.65" height="50.07" transform="translate(-127.22 221.97) rotate(-63.62)"/><rect class="cls-1" x="464.94" y="340.07" width="54.43" height="4.65" transform="translate(-107.37 346.49) rotate(-35.22)"/><rect class="cls-5" x="363.47" y="425.62" width="31.35" height="31.35"/><rect class="cls-5" x="157.27" y="137.48" width="31.35" height="31.35"/><rect class="cls-5" x="80.07" y="184.58" width="31.35" height="31.35"/><rect class="cls-5" x="196.88" y="430.19" width="31.35" height="31.35" transform="translate(-281.31 437.27) rotate(-63.51)"/><rect class="cls-5" x="491.92" y="425.62" width="31.35" height="31.35"/><rect class="cls-5" x="498.72" y="305.58" width="31.35" height="31.35"/><path class="cls-5" d="M427.38,382.46l-8.13-4.5,2.25-4.06,8.13,4.5-2.25,4.06ZM415.18,375.72l-8.13-4.5,2.25-4.06,8.13,4.5-2.25,4.06ZM402.99,368.97l-8.13-4.5,2.25-4.06,8.13,4.5-2.25,4.06ZM390.79,362.23l-8.13-4.5,2.25-4.07,8.13,4.5-2.25,4.07ZM378.6,355.48l-8.13-4.5,2.25-4.06,8.13,4.5-2.25,4.06ZM366.4,348.74l-8.13-4.5,2.25-4.06,8.13,4.5-2.25,4.06ZM354.21,341.99l-8.13-4.5,2.25-4.06,8.13,4.5-2.25,4.06Z"/><path class="cls-5" d="M165.71,397.74l-2.62-3.84,7.68-5.23,2.62,3.84-7.68,5.23ZM177.22,389.89l-2.62-3.84,7.68-5.23,2.62,3.84-7.68,5.23ZM188.74,382.05l-2.62-3.84,7.68-5.23,2.62,3.84-7.68,5.23ZM200.25,374.2l-2.62-3.84,7.68-5.23,2.62,3.84-7.68,5.23ZM211.77,366.35l-2.62-3.84,7.68-5.23,2.62,3.84-7.68,5.23ZM223.28,358.5l-2.62-3.84,7.68-5.23,2.62,3.84-7.68,5.23Z"/><path class="cls-5" d="M231.38,297.25l-8.32-4.13,2.06-4.16,8.32,4.13-2.06,4.16ZM218.9,291.06l-8.32-4.13,2.06-4.16,8.32,4.13-2.06,4.16ZM206.41,284.87l-8.32-4.13,2.06-4.16,8.32,4.13-2.06,4.16ZM193.92,278.68l-8.32-4.13,2.06-4.16,8.32,4.13-2.06,4.16ZM181.44,272.49l-4.6-2.28,2.06-4.16,4.6,2.28-2.06,4.16Z"/><path class="cls-6" d="M407.66,350.79h0c0,2.78.32,5.48.91,8.07.67,2.94,1.7,5.75,3.04,8.37,0,0,.7,1.24,1.15,2.09.5.75.75,1.21,1.15,1.81l27.07,46.61.22-.37h0s27.5-46.25,27.5-46.25c.14-.21.28-.43.41-.64l.75-1.15.53-.97c2.89-5.2,4.54-11.19,4.54-17.56,0-20-13.65-33.64-33.64-33.64-18.75,0-31.91,12-33.48,29.97,0,.04,0,.07,0,.11-.02.26-.04.53-.06.8,0,0,0,.01,0,.02-.02.3-.04.59-.05.89,0,.02,0,.03,0,.05-.03.6-.04,1.2-.04,1.81ZM423.03,349.16c0-.32,0-.63.02-.94,0-.12.02-.23.03-.35.01-.19.02-.39.04-.58.02-.16.04-.32.06-.48.02-.14.03-.29.05-.43.03-.19.07-.38.1-.57.02-.11.04-.22.06-.33.04-.22.1-.43.15-.64.02-.08.04-.16.06-.24.06-.24.13-.47.2-.71.02-.05.03-.11.04-.16.08-.26.17-.52.26-.77,0-.02.02-.05.02-.07,2.56-7.04,9.32-12.07,17.24-12.07,10.13,0,18.34,8.21,18.34,18.35s-8.21,18.34-18.34,18.34c-7.3,0-13.6-4.26-16.56-10.44,0,0,0,0,0,0-.13-.26-.25-.53-.36-.8-.01-.03-.02-.06-.03-.08-.1-.24-.2-.49-.29-.74-.02-.05-.04-.11-.05-.16-.08-.23-.16-.45-.23-.69-.03-.08-.05-.16-.07-.24-.06-.21-.12-.41-.18-.62-.03-.11-.05-.21-.07-.32-.04-.19-.09-.37-.13-.56-.03-.13-.05-.26-.07-.39-.03-.17-.06-.34-.09-.51-.02-.16-.04-.32-.06-.48-.02-.15-.04-.29-.06-.44-.02-.2-.03-.41-.05-.61,0-.11-.02-.21-.02-.32-.02-.31-.02-.63-.02-.94Z"/><path class="cls-4" d="M113.06,379.49h0c0,2.78.32,5.48.91,8.07.67,2.94,1.7,5.75,3.04,8.37,0,0,.7,1.24,1.15,2.09.5.75.75,1.21,1.15,1.81l27.07,46.61.22-.37h0s27.5-46.25,27.5-46.25c.14-.21.28-.43.41-.64l.75-1.15.53-.97c2.89-5.2,4.54-11.19,4.54-17.56,0-20-13.65-33.64-33.64-33.64-18.75,0-31.91,12-33.48,29.97,0,.04,0,.07,0,.11-.02.26-.04.53-.06.79,0,0,0,.01,0,.02-.02.3-.04.59-.05.89,0,.02,0,.03,0,.05-.03.6-.04,1.2-.04,1.81ZM128.43,377.87c0-.32,0-.63.02-.94,0-.12.02-.23.03-.35.01-.19.02-.39.04-.58.02-.16.04-.32.06-.48.02-.14.03-.29.05-.43.03-.19.07-.38.1-.57.02-.11.04-.22.06-.33.04-.22.1-.43.15-.64.02-.08.04-.16.06-.24.06-.24.13-.47.2-.71.02-.05.03-.11.04-.16.08-.26.17-.52.26-.77,0-.02.02-.05.02-.07,2.56-7.04,9.32-12.07,17.24-12.07,10.13,0,18.34,8.21,18.34,18.34s-8.21,18.34-18.34,18.34c-7.3,0-13.6-4.26-16.56-10.44,0,0,0,0,0,0-.13-.26-.25-.53-.36-.8-.01-.03-.02-.06-.03-.08-.1-.24-.2-.49-.29-.74-.02-.05-.04-.11-.05-.16-.08-.23-.16-.45-.23-.68-.03-.08-.05-.16-.07-.24-.06-.21-.12-.41-.18-.62-.03-.11-.05-.21-.07-.32-.04-.19-.09-.37-.13-.56-.03-.13-.05-.26-.07-.39-.03-.17-.06-.34-.09-.51-.02-.16-.04-.32-.06-.48-.02-.15-.04-.29-.06-.44-.02-.2-.03-.41-.05-.61,0-.11-.02-.21-.02-.32-.02-.31-.02-.63-.02-.94Z"/><path class="cls-2" d="M136.71,233.9h0c0,2.78.32,5.48.91,8.07.67,2.94,1.7,5.75,3.04,8.37,0,0,.7,1.24,1.15,2.09.5.75.75,1.21,1.15,1.81l27.07,46.61.22-.37h0s27.5-46.25,27.5-46.25c.14-.21.28-.43.41-.64l.75-1.15.53-.97c2.89-5.2,4.54-11.19,4.54-17.56,0-20-13.65-33.64-33.64-33.64-18.75,0-31.91,12-33.48,29.97,0,.04,0,.07,0,.11-.02.26-.04.53-.06.79,0,0,0,.01,0,.02-.02.3-.04.59-.05.89,0,.02,0,.03,0,.05-.03.6-.04,1.2-.04,1.81ZM152.09,232.27c0-.32,0-.63.02-.94,0-.12.02-.23.03-.35.01-.19.02-.39.04-.58.02-.16.04-.32.06-.48.02-.14.03-.29.05-.43.03-.19.07-.38.1-.57.02-.11.04-.22.06-.33.04-.22.1-.43.15-.64.02-.08.04-.16.06-.24.06-.24.13-.47.2-.71.02-.05.03-.11.04-.16.08-.26.17-.52.26-.77,0-.02.02-.05.02-.07,2.56-7.04,9.31-12.07,17.24-12.07,10.13,0,18.34,8.21,18.34,18.34s-8.21,18.34-18.34,18.34c-7.3,0-13.6-4.26-16.56-10.44,0,0,0,0,0,0-.13-.26-.25-.53-.36-.8-.01-.03-.02-.06-.03-.08-.1-.24-.2-.49-.29-.74-.02-.05-.04-.11-.05-.16-.08-.23-.16-.45-.23-.68-.03-.08-.05-.16-.07-.24-.06-.21-.12-.41-.18-.62-.03-.11-.05-.21-.07-.32-.04-.19-.09-.37-.13-.56-.03-.13-.05-.26-.07-.39-.03-.17-.06-.34-.09-.51-.02-.16-.04-.32-.06-.48-.02-.15-.04-.29-.06-.44-.02-.2-.03-.41-.05-.61,0-.11-.02-.21-.02-.32-.02-.31-.02-.63-.02-.94Z"/><path class="cls-5" d="M349.84,363.5l-.15-1.59c-.12-1.25-.24-2.51-.39-3.76-.65-5.34-2.16-10.47-4.5-15.23-3.57-7.29-8.97-13.38-16.04-18.09-1.22-.81-2.47-1.56-3.82-2.35l-3.09-1.86-1.73,2c-.54.65-1.07,1.29-1.67,1.85-4.99,4.71-10.46,7.08-16.74,7.24-6.49.22-12.03-1.58-16.75-5.37-1.3-1.04-2.5-2.2-3.71-3.36l-.64-.62c-1.33-1.29-2.6-.91-3.43-.36-.78.51-1.57,1.01-2.37,1.51-1.32.83-2.63,1.65-3.9,2.55-1.25.89-2.43,1.86-3.65,2.87l-3.01,2.44,5.99,5.68,1.83-1.5c.54-.45,1.1-.92,1.68-1.35,1.34-.99,2.71-1.95,4.08-2.91l.1-.07.41.33c1.09.88,2.18,1.76,3.34,2.54,6.91,4.68,14.72,6.57,23.23,5.67,4.86-.52,9.44-2.22,14.01-5.2,1.31-.85,2.56-1.78,3.81-2.72l.81-.6c7.2,4.58,12.32,10.76,15.24,18.39,1.75,4.57,2.67,9.65,2.81,15.48h-64.08v7.88h69.71c2.07.01,2.33-1.62,2.36-2.11.03-.46.09-.92.15-1.37l.1-.8v-5.2Z"/><path class="cls-5" d="M267.51,364.14c-5.57-4.44-8.64-10.46-9.6-18.85,1.99-.07,3.97-.12,5.96-.16,1.49-.03,2.13-.93,2.4-1.68.38-1.04.83-2.05,1.28-3.06.45-1.01.24-1.99-.59-2.74-.65-.59-1.28-1.2-1.91-1.81l-17.31-16.52c-.18-.17-.38-.34-.79-.67l-1.24-.65-5.23,4.78c-3.23,3.03-6.46,6.07-9.65,9.13-1.34,1.29-2.63,2.62-3.92,3.97l-1.89,1.95c-.79.81-.99,1.86-.55,2.9l.5,1.2c.27.67.55,1.34.85,2,.37.82,1.32,1.27,2.06,1.3,1.82.06,3.65.1,5.47.14l1.16.02s.05,0,.07,0c0,.03.01.06.02.09,1.59,6.77,5.08,12.67,10.4,17.53,3.51,3.22,7.52,5.65,11.91,7.22,2.62.94,5.29,1.75,7.95,2.56.49.15.9.21,1.27.21,1.23,0,1.89-.76,2.43-1.89.47-.99.88-2,1.27-3.02.32-.84-.02-1.79-.53-2.29-.58-.58-1.17-1.14-1.81-1.65ZM253.24,359.12c-3.56-2.5-6.27-5.5-8.09-8.93-1.65-3.13-2.74-6.59-3.33-10.59-.3-2-.93-2.55-3-2.58-.47,0-.94-.02-1.43-.03l8.53-8.14,8.42,8.14h-4.92v1.57c0,6.02.48,13.48,3.81,20.57ZM245.36,320.34h0Z"/><path class="cls-5" d="M230.31,328.76c1.08,0,1.93-1.01,2.11-1.76.16-.63.28-1.28.41-1.92.13-.65.26-1.3.42-1.94,1.93-7.6,6.16-13.89,12.59-18.69,5.97,4.79,12.16,6.97,19.05,6.65,1.24-.06,2.49-.2,3.73-.35l1.01-.12c.68-.08,1.25-.4,1.61-.9.19-.27.32-.72.33-1.27,1.49,4.01,3.82,7.77,6.93,10.96,5.88,6.03,13.7,9.35,22.01,9.36h.03c8.41,0,16.25-3.23,22.1-9.08,5.85-5.86,9.07-13.74,9.08-22.18.01-16.89-13.86-30.73-30.92-30.84-8.26-.16-16.27,3.29-22.26,9.42-5.83,5.97-9.04,13.93-8.81,21.84-.03,1.5.1,3,.31,4.48l-1.67.16c-.6.04-1.21.09-1.82.14-1.28.11-2.55.23-3.85.19-3.52-.09-6.77-1.24-9.66-3.42-1.03-.78-1.98-1.66-2.93-2.53,4.45,3.21,9.97,4.95,16.36,4.95h1.65s0-2.72,0-2.72c0-.93,0-1.84,0-2.75-.02-1.36-.9-2.38-2.3-2.68-.5-.11-1.01-.15-1.52-.18-2.23-.14-4.13-.56-5.82-1.28-8.58-3.66-12.59-12.32-9.75-21.07,2.23-6.88,6.98-10.79,14.12-11.62,1.68-.19,3.49-.18,5.24.04,2.26.29,4.47,1.27,7.19,3.2,1.66,1.18,3.14,2.86,4.64,5.28.8,1.28,2.05,1.68,3.34,1.06l.85-.38c.56-.24,1.12-.49,1.65-.78.75-.4,1.59-.86,1.83-1.83s-.27-1.75-.73-2.44c-4.84-7.31-10.75-11.31-18.07-12.22-2.62-.33-5.67-.62-8.68.04-9.86,2.16-16.49,8.32-19.68,18.29-.83,2.59-.75,5.19-.67,7.71v.46c.1,2.99.67,5.7,1.71,8.06,1.53,3.49,3.61,6.4,6.11,8.77-.76-.32-1.45-.12-1.95.16-4.05,2.26-7.37,4.76-10.16,7.62-5.79,5.95-9.45,13.45-11.18,22.93-.15.83.1,1.41.34,1.75.32.46.83.76,1.41.86,1.36.22,2.72.43,4.09.58.06,0,.12,0,.17,0ZM300.42,274.91h.08c13.06.05,22.92,9.96,22.94,23.06.01,5.9-2.34,11.49-6.61,15.75-4.32,4.3-10.27,6.87-15.93,6.87h-.11c-12.7-.08-22.98-10.41-22.92-23.03h0c-.02-5.85,2.43-11.66,6.72-15.96s9.93-6.69,15.83-6.69ZM245.83,302.52h0s0,0,0,0Z"/></svg>